<svg width="54" height="53" viewBox="0 0 54 53" fill="none" xmlns="http://www.w3.org/2000/svg">
<path d="M26.4742 11.9525V1.66675H16.1885" stroke="black" stroke-width="2" stroke-linecap="round" stroke-linejoin="round"/>
<path d="M34.2861 24.7144V30.4286" stroke="black" stroke-width="2" stroke-linecap="round" stroke-linejoin="round"/>
<path d="M1.33105 27.9526H5.90248" stroke="black" stroke-width="2" stroke-linecap="round" stroke-linejoin="round"/>
<path d="M47.0459 27.9526H52.7602" stroke="black" stroke-width="2" stroke-linecap="round" stroke-linejoin="round"/>
<path d="M47.0462 37.8645C47.0462 39.2389 46.5043 40.5571 45.5399 41.529C44.5754 42.5008 43.2673 43.0468 41.9033 43.0468H18.3182C16.9543 43.0471 15.6464 43.5933 14.6822 44.5653L9.01989 50.2711C8.76456 50.5283 8.43927 50.7035 8.08515 50.7744C7.73103 50.8454 7.36397 50.809 7.0304 50.6698C6.69682 50.5305 6.4117 50.2948 6.21108 49.9923C6.01047 49.6898 5.90337 49.3341 5.90332 48.9703V17.135C5.90332 15.7606 6.44516 14.4424 7.40963 13.4705C8.3741 12.4986 9.68221 11.9526 11.0462 11.9526H41.9033C43.2673 11.9526 44.5754 12.4986 45.5399 13.4705C46.5043 14.4424 47.0462 15.7606 47.0462 17.135V37.8645Z" stroke="black" stroke-width="4" stroke-linecap="round" stroke-linejoin="round"/>
<path d="M19.6172 24.5239V30.2382" stroke="black" stroke-width="2" stroke-linecap="round" stroke-linejoin="round"/>
</svg>
