<svg width="597" height="403" viewBox="0 0 597 403" fill="none" xmlns="http://www.w3.org/2000/svg">
<g clip-path="url(#clip0_2232_7312)">
<path opacity="0.1" d="M198.478 402.773C227.552 402.773 251.12 399.166 251.12 394.716C251.12 390.266 227.552 386.658 198.478 386.658C169.405 386.658 145.836 390.266 145.836 394.716C145.836 399.166 169.405 402.773 198.478 402.773Z" fill="#6C63FF"/>
<path opacity="0.1" d="M484.633 403C520.912 403 550.322 399.393 550.322 394.943C550.322 390.493 520.912 386.885 484.633 386.885C448.353 386.885 418.943 390.493 418.943 394.943C418.943 399.393 448.353 403 484.633 403Z" fill="#6C63FF"/>
<path opacity="0.1" d="M7.47724 174.125H62.3074V245.345H11.4913C11.3562 246.076 11.2266 246.813 11.0861 247.549H62.3074V304.986C62.2156 304.961 62.1345 304.93 62.0481 304.899C60.6002 304.353 59.1631 303.777 57.7261 303.159L56.8076 302.762C55.367 302.114 53.9263 301.427 52.4856 300.703C51.9832 300.451 51.4808 300.188 50.9837 299.92C42.9857 295.651 35.72 290.24 29.4385 283.877C29.2548 283.707 29.0819 283.527 28.8982 283.362C28.023 282.456 27.164 281.54 26.332 280.603L25.4136 279.573C24.4303 278.425 23.4795 277.246 22.5557 276.051C22.4206 275.876 22.2909 275.701 22.1505 275.537C18.3933 270.572 15.2736 265.196 12.8582 259.525C12.7825 259.355 12.7177 259.169 12.6475 259.01C11.9055 257.19 11.2482 255.354 10.6755 253.501C10.427 252.723 10.1893 251.956 9.98401 251.148C9.90837 250.911 9.84354 250.679 9.78411 250.448C6.71548 239.033 6.35352 227.176 6.35352 215.401C6.35352 214.027 6.35352 212.647 6.35352 211.282C6.35352 206.52 6.41294 201.727 6.49938 196.938C6.49938 195.698 6.55341 194.462 6.58042 193.216C6.65606 190.055 6.76411 186.893 6.90457 183.732C6.93699 182.852 6.98021 181.977 7.02883 181.101C7.02883 180.597 7.05584 180.092 7.10987 179.588C7.23953 177.755 7.34758 175.937 7.47724 174.125Z" fill="#6C63FF"/>
<path opacity="0.1" d="M62.3073 94.8266H32.2314C37.1204 87.534 42.4622 80.5264 48.2283 73.841C52.6962 68.61 57.4126 63.5129 62.3073 58.6012V94.8266Z" fill="#08A5A7"/>
<path opacity="0.1" d="M62.3077 97.03V171.921H7.65039C7.65039 171.705 7.68821 171.484 7.70441 171.267C7.75304 170.675 7.80166 170.083 7.85568 169.496C7.91511 168.806 7.97994 168.111 8.05018 167.437C8.12041 166.762 8.19604 165.939 8.27708 165.192C8.35812 164.446 8.43376 163.689 8.5256 162.942C8.61744 162.196 8.69848 161.449 8.79572 160.708C8.89297 159.966 8.97941 159.215 9.08206 158.473C9.1631 157.855 9.24953 157.243 9.33597 156.625C9.46023 155.755 9.58989 154.879 9.73036 154.015C9.73036 153.886 9.76818 153.752 9.78979 153.628C10.7758 147.296 12.1194 141.02 13.8147 134.826C15.5892 128.328 17.8552 121.962 20.5948 115.776C23.5066 109.305 26.9159 103.048 30.7948 97.0558L62.3077 97.03Z" fill="#08A5A7"/>
<path opacity="0.1" d="M75.3975 174.12V245.345H192.508V174.12H75.3975ZM75.3975 247.544V308.709C76.0674 308.843 76.7319 308.971 77.391 309.079C78.2878 309.244 79.1792 309.393 80.0923 309.522C80.2651 309.548 80.4434 309.574 80.6325 309.589C80.9891 309.646 81.3564 309.692 81.713 309.738C82.6152 309.857 83.512 309.955 84.4143 310.032C84.8411 310.073 85.2733 310.109 85.7055 310.14L86.7482 310.217C87.3154 310.258 87.8773 310.289 88.4337 310.305C88.7795 310.305 89.1253 310.336 89.4818 310.346C89.752 310.346 90.0221 310.346 90.303 310.346C90.5839 310.346 90.9837 310.346 91.3241 310.346C91.7887 310.346 92.2533 310.346 92.7125 310.346H93.3338C93.7984 310.346 94.2631 310.346 94.7223 310.305H94.7547C95.0734 310.305 95.3976 310.305 95.7217 310.264C95.8117 310.269 95.9019 310.269 95.9919 310.264C96.262 310.264 96.5321 310.264 96.7914 310.228H96.9805L98.7904 310.094C99.3846 310.042 99.9843 309.975 100.589 309.914L101.821 309.775C106.832 309.105 111.788 308.101 116.651 306.768C127.575 303.864 138.261 299.802 149.18 296.826C163.296 292.99 178.894 291.106 192.535 295.796V247.544H75.3975ZM192.508 94.8264V0.00500194C179.686 -0.12738 166.899 1.30176 154.458 4.25773C124.804 11.3576 98.1961 26.757 75.3975 46.4246V94.8213H81.2754V97.0197H75.3975V171.921H192.508V97.0249H105.408V94.8264H192.508ZM342.93 62.7971C335.594 62.55 328.3 60.3361 321.704 56.9174C309.089 50.3787 299.013 40.2823 287.754 31.7614C264.361 14.0143 235.35 3.30524 205.587 0.648575V94.8264H372.768L373.184 94.4094L342.93 62.7971ZM358.16 60.2228L374.308 77.1101V55.795C368.9 56.4334 364.162 57.9523 358.182 60.2022L358.16 60.2228ZM374.308 323.897V247.544H339.899C339.808 247.219 339.716 246.89 339.608 246.56C339.71 246.89 339.797 247.219 339.894 247.544H205.609V302.762C206.884 303.663 208.143 304.61 209.391 305.573C210.736 306.603 212.065 307.689 213.399 308.755L214.745 309.816C215.388 310.331 216.036 310.845 216.69 311.329C217.986 312.332 219.295 313.32 220.617 314.295C221.271 314.81 221.941 315.273 222.605 315.757C233.155 323.444 244.283 330.381 255.901 336.511C258.505 337.884 261.132 339.224 263.783 340.532C265.55 341.392 267.327 342.247 269.11 343.076C271.79 344.321 274.491 345.523 277.214 346.68C302.318 357.419 328.863 364.788 356.091 368.576C362.138 369.428 368.209 370.097 374.303 370.584V323.892H374.843L374.308 323.897ZM205.609 97.0249V171.921H374.33V97.0249H205.609ZM205.609 174.12V245.345H374.33V174.12H205.609ZM387.425 55.7024V79.4785L408.036 57.9265C401.207 56.8762 394.337 56.1263 387.425 55.6766V55.7024ZM387.425 174.145V245.345H551.527V174.12L387.425 174.145ZM550.927 329.55L551.505 247.544H387.425V371.403C397.995 371.826 408.582 371.706 419.138 371.043H419.322C424.364 370.741 429.383 370.301 434.379 369.725H434.492C461.143 366.769 487.203 360.142 511.856 350.052M583.17 185.848C582.554 184.463 581.911 183.089 581.257 181.729C580.036 179.155 578.745 176.653 577.416 174.151H564.612V245.345H596.984C596.968 225.183 591.614 204.589 583.186 185.822L583.17 185.848ZM564.612 247.569V318.105C573.731 309.775 581.435 300.244 586.984 289.35C593.656 276.232 596.708 262.027 596.957 247.559L564.612 247.569ZM564.612 153.392V171.926H576.216C572.706 165.546 568.837 159.35 564.628 153.366L564.612 153.392ZM453.32 69.6756C452.466 69.3667 451.613 69.0526 450.754 68.7489C441.694 65.5605 432.436 62.9091 423.033 60.8097L391.493 93.7967L390.888 94.4094L391.294 94.8316H503.547C487.913 84.5758 471.059 76.1229 453.336 69.6499L453.32 69.6756ZM506.837 97.0506H389.727L387.425 99.0585V171.921H407.598H407.631H551.549V136.628C538.53 121.623 523.503 108.308 506.853 97.0249L506.837 97.0506Z" fill="#08A5A7"/>
<path opacity="0.1" d="M62.3077 134.805V171.921H7.65039C7.65039 171.705 7.68821 171.484 7.70441 171.267C7.75304 170.675 7.80166 170.083 7.85568 169.496C7.91511 168.806 7.97994 168.111 8.05018 167.437C8.12041 166.762 8.19604 165.939 8.27708 165.192C8.35812 164.446 8.43376 163.689 8.5256 162.942C8.61744 162.196 8.69848 161.449 8.79572 160.708C8.89297 159.966 8.97941 159.215 9.08206 158.473C9.1631 157.855 9.24953 157.243 9.33597 156.625C9.46023 155.755 9.58989 154.879 9.73036 154.015C9.73036 153.886 9.76818 153.752 9.78979 153.628C10.7758 147.296 12.1194 141.02 13.8147 134.826L62.3077 134.805Z" fill="#6C63FF"/>
<path opacity="0.1" d="M7.47724 174.125H62.3074V245.345H11.4913C11.3562 246.076 11.2266 246.813 11.0861 247.549H62.3074V304.986C62.2156 304.961 62.1345 304.93 62.0481 304.899C60.6002 304.353 59.1631 303.777 57.7261 303.159L56.8076 302.762C55.367 302.114 53.9263 301.427 52.4856 300.703C51.9832 300.451 51.4808 300.188 50.9837 299.92C42.9857 295.651 35.72 290.24 29.4385 283.877C29.2548 283.707 29.0819 283.527 28.8982 283.362C28.023 282.456 27.164 281.54 26.332 280.603L25.4136 279.573C24.4303 278.425 23.4795 277.246 22.5557 276.051C22.4206 275.876 22.2909 275.701 22.1505 275.537C18.3933 270.572 15.2736 265.196 12.8582 259.525C12.7825 259.355 12.7177 259.169 12.6475 259.01C11.9055 257.19 11.2482 255.354 10.6755 253.501C10.427 252.723 10.1893 251.956 9.98401 251.148C9.90837 250.911 9.84354 250.679 9.78411 250.448C6.71548 239.033 6.35352 227.176 6.35352 215.401C6.35352 214.027 6.35352 212.647 6.35352 211.282C6.35352 206.52 6.41294 201.727 6.49938 196.938C6.49938 195.698 6.55341 194.462 6.58042 193.216C6.65606 190.055 6.76411 186.893 6.90457 183.732C6.93699 182.852 6.98021 181.977 7.02883 181.101C7.02883 180.597 7.05584 180.092 7.10987 179.588C7.23953 177.755 7.34758 175.937 7.47724 174.125Z" fill="#08A5A7"/>
<path opacity="0.1" d="M116.624 107.749V171.921H75.3975V107.749H81.2754V86.0225H105.403V107.749H116.624Z" fill="#6C63FF"/>
<path opacity="0.1" d="M116.625 174.12H75.4033V245.34H116.625V174.12Z" fill="#6C63FF"/>
<path opacity="0.1" d="M75.3975 247.549H116.624V306.758C111.761 308.089 106.805 309.092 101.794 309.759L100.562 309.903C99.9573 309.97 99.3576 310.027 98.7634 310.083C98.1691 310.14 97.5532 310.181 96.9535 310.217H96.7644C96.5051 310.217 96.2242 310.248 95.9703 310.253H95.6947C95.3706 310.253 95.0464 310.284 94.7223 310.295C94.2631 310.32 93.8038 310.325 93.3338 310.331C93.1339 310.331 92.9448 310.331 92.7449 310.331C92.2803 310.331 91.8211 310.331 91.3565 310.331H90.3354C90.0599 310.331 89.7952 310.331 89.5088 310.331L88.4662 310.295C87.9259 310.295 87.3424 310.238 86.7806 310.202L85.7433 310.13L84.4521 310.017C83.5445 309.939 82.6422 309.842 81.7508 309.723L80.6703 309.579L80.1301 309.507C79.2278 309.373 78.3364 309.229 77.4288 309.064C76.7643 308.956 76.1052 308.822 75.4353 308.693L75.3975 247.549Z" fill="#6C63FF"/>
<path opacity="0.1" d="M374.33 100.171H340.337V171.916H374.33V100.171Z" fill="#6C63FF"/>
<path opacity="0.1" d="M374.335 174.12V245.345H205.609V214.624H295.48V232.747H340.337V174.12H374.335Z" fill="#1D8F87"/>
<path opacity="0.1" d="M374.87 323.913H374.33V370.636C368.243 370.145 362.174 369.477 356.124 368.633C328.882 364.832 302.326 357.447 277.214 346.69C269.964 343.58 262.862 340.185 255.907 336.506C244.289 330.372 233.159 323.436 222.606 315.752C219.955 313.816 217.338 311.836 214.756 309.811C212.968 308.405 211.19 306.963 209.391 305.563C208.143 304.6 206.884 303.653 205.609 302.747V247.549H339.889C339.797 247.219 339.705 246.89 339.608 246.565C339.711 246.89 339.808 247.219 339.9 247.549H374.33V323.882C374.514 323.887 374.692 323.902 374.87 323.913Z" fill="#1D8F87"/>
<path opacity="0.1" d="M462.985 94.8265H440.835V88.2673H450.765V68.7284C451.626 69.027 452.483 69.3342 453.336 69.65V88.2673H462.985V94.8265Z" fill="#6C63FF"/>
<path opacity="0.1" d="M516.352 171.921H407.61C407.61 171.921 407.61 171.921 407.647 171.947L407.599 171.921H387.426V100.176H393.142V153.206H419.263V121.8H440.84V97.03H462.991V121.82H484.568V153.227H516.352V171.921Z" fill="#6C63FF"/>
<path opacity="0.1" d="M387.426 174.12V245.345H516.351V174.12H387.426ZM551.349 329.185L551.527 272.808H516.351V247.58H387.426V371.403C397.996 371.826 408.582 371.706 419.139 371.043H419.322C424.365 370.741 429.384 370.301 434.379 369.725H434.493C461.143 366.769 487.203 360.142 511.857 350.052" fill="#1D8F87"/>
<path opacity="0.1" d="M566.903 247.549H596.979C596.714 262.011 593.667 276.216 587 289.335C581.452 300.234 573.742 309.764 564.634 318.09V272.782H566.903V247.549Z" fill="#6C63FF"/>
<path opacity="0.1" d="M596.994 245.345H566.902V185.823H583.186C591.613 204.589 596.967 225.183 596.994 245.345Z" fill="#6C63FF"/>
<path opacity="0.1" d="M374.335 120.116H356.123V142.611H374.335V120.116Z" fill="#6C63FF"/>
<path opacity="0.1" d="M374.335 166.742H356.123V171.921H374.335V166.742Z" fill="#6C63FF"/>
<path opacity="0.1" d="M374.335 174.12H356.123V189.231H374.335V174.12Z" fill="#6C63FF"/>
<path opacity="0.1" d="M374.335 213.367H356.123V235.862H374.335V213.367Z" fill="#6C63FF"/>
<path opacity="0.1" d="M374.335 259.993H356.123V282.487H374.335V259.993Z" fill="#6C63FF"/>
<path opacity="0.1" d="M374.33 323.882C374.513 323.882 374.692 323.882 374.87 323.913H374.33V329.139H356.123V306.619H374.33V323.882Z" fill="#6C63FF"/>
<path opacity="0.1" d="M374.33 353.234V370.61C368.243 370.12 362.174 369.452 356.123 368.608V353.234H374.33Z" fill="#6C63FF"/>
<path opacity="0.1" d="M283.66 243.693H205.609V245.345H283.66V243.693Z" fill="#6C63FF"/>
<path opacity="0.1" d="M283.66 247.544H205.609V253.876H283.66V247.544Z" fill="#6C63FF"/>
<path opacity="0.1" d="M283.66 274.635H205.609V284.819H283.66V274.635Z" fill="#6C63FF"/>
<path opacity="0.1" d="M283.654 305.579V315.762H222.606C219.955 313.833 217.336 311.853 214.75 309.821C212.962 308.415 211.19 306.974 209.386 305.579H283.654Z" fill="#6C63FF"/>
<path opacity="0.1" d="M283.654 336.516V346.69H277.208C269.965 343.577 262.865 340.18 255.906 336.501L283.654 336.516Z" fill="#6C63FF"/>
<path opacity="0.1" d="M434.508 181.024H419.144V195.667H434.508V181.024Z" fill="#6C63FF"/>
<path opacity="0.1" d="M101.833 112.8H86.4678V127.443H101.833V112.8Z" fill="#6C63FF"/>
<path opacity="0.1" d="M101.833 146.812H86.4678V161.454H101.833V146.812Z" fill="#6C63FF"/>
<path opacity="0.1" d="M101.833 180.823H86.4678V195.466H101.833V180.823Z" fill="#6C63FF"/>
<path opacity="0.1" d="M101.833 214.83H86.4678V229.472H101.833V214.83Z" fill="#6C63FF"/>
<path opacity="0.1" d="M101.833 248.841H86.4678V263.484H101.833V248.841Z" fill="#6C63FF"/>
<path opacity="0.1" d="M101.833 282.853H86.4678V297.495H101.833V282.853Z" fill="#6C63FF"/>
<path opacity="0.1" d="M493.164 181.024H477.799V195.667H493.164V181.024Z" fill="#6C63FF"/>
<path opacity="0.1" d="M493.164 217.141H477.799V231.784H493.164V217.141Z" fill="#6C63FF"/>
<path opacity="0.1" d="M434.508 253.253H419.144V267.896H434.508V253.253Z" fill="#6C63FF"/>
<path opacity="0.1" d="M493.164 253.253H477.799V267.896H493.164V253.253Z" fill="#6C63FF"/>
<path opacity="0.1" d="M434.508 289.371H419.144V304.013H434.508V289.371Z" fill="#6C63FF"/>
<path opacity="0.1" d="M493.164 289.371H477.799V304.013H493.164V289.371Z" fill="#6C63FF"/>
<path opacity="0.1" d="M434.508 325.488H419.144V340.131H434.508V325.488Z" fill="#6C63FF"/>
<path opacity="0.1" d="M493.164 325.488H477.799V340.131H493.164V325.488Z" fill="#6C63FF"/>
<path opacity="0.1" d="M419.144 371.043V361.6H434.503V369.699L419.144 371.043Z" fill="#6C63FF"/>
<path opacity="0.1" d="M9.72461 153.618V161.995H62.3073V153.618H9.72461ZM14.9651 161.47H10.6755V154.133H14.9975L14.9651 161.47ZM20.2001 161.47H15.8781V154.133H20.2001V161.47ZM25.4243 161.47H21.1023V154.133H25.4243V161.47ZM30.6594 161.47H26.3428V154.133H30.6648L30.6594 161.47ZM35.889 161.47H31.567V154.133H35.889V161.47ZM41.1241 161.47H36.802V154.133H41.1241V161.47ZM46.3591 161.47H42.0371V154.133H46.3591V161.47ZM51.5887 161.47H47.2667V154.133H51.5887V161.47ZM56.8184 161.47H52.4964V154.133H56.8184V161.47ZM62.048 161.47H57.726V154.133H62.048V161.47Z" fill="#6C63FF"/>
<path opacity="0.1" d="M9.72461 177.991V186.368H62.3073V177.991H9.72461ZM14.9651 185.838H10.6755V178.522H14.9975L14.9651 185.838ZM20.2001 185.838H15.8781V178.522H20.2001V185.838ZM25.4243 185.838H21.1023V178.522H25.4243V185.838ZM30.6594 185.838H26.3428V178.522H30.6648L30.6594 185.838ZM35.889 185.838H31.567V178.522H35.889V185.838ZM41.1241 185.838H36.802V178.522H41.1241V185.838ZM46.3591 185.838H42.0371V178.522H46.3591V185.838ZM51.5887 185.838H47.2667V178.522H51.5887V185.838ZM56.8184 185.838H52.4964V178.522H56.8184V185.838ZM62.048 185.838H57.726V178.522H62.048V185.838Z" fill="#6C63FF"/>
<path opacity="0.1" d="M9.72461 202.375V210.767H62.3073V202.375H9.72461ZM14.9651 210.222H10.6755V202.9H14.9975L14.9651 210.222ZM20.2001 210.222H15.8781V202.9H20.2001V210.222ZM25.4243 210.222H21.1023V202.9H25.4243V210.222ZM30.6594 210.222H26.3428V202.9H30.6648L30.6594 210.222ZM35.889 210.222H31.567V202.9H35.889V210.222ZM41.1241 210.222H36.802V202.9H41.1241V210.222ZM46.3591 210.222H42.0371V202.9H46.3591V210.222ZM51.5887 210.222H47.2667V202.9H51.5887V210.222ZM56.8184 210.222H52.4964V202.9H56.8184V210.222ZM62.048 210.222H57.726V202.9H62.048V210.222Z" fill="#6C63FF"/>
<path opacity="0.1" d="M9.72461 226.759V235.125H62.3073V226.759H9.72461ZM14.9651 234.605H10.6755V227.279H14.9975L14.9651 234.605ZM20.2001 234.605H15.8781V227.279H20.2001V234.605ZM25.4243 234.605H21.1023V227.279H25.4243V234.605ZM30.6594 234.605H26.3428V227.279H30.6648L30.6594 234.605ZM35.889 234.605H31.567V227.279H35.889V234.605ZM41.1241 234.605H36.802V227.279H41.1241V234.605ZM46.3591 234.605H42.0371V227.279H46.3591V234.605ZM51.5887 234.605H47.2667V227.279H51.5887V234.605ZM56.8184 234.605H52.4964V227.279H56.8184V234.605ZM62.048 234.605H57.726V227.279H62.048V234.605Z" fill="#6C63FF"/>
<path opacity="0.1" d="M9.95117 251.137C10.1619 251.925 10.3996 252.713 10.6481 253.49V251.663H14.9701V258.984H12.6578C12.7281 259.154 12.7983 259.339 12.8685 259.499H62.307V251.137H9.95117ZM20.216 258.984H15.8939V251.663H20.216V258.984ZM25.4402 258.984H21.1182V251.663H25.4402V258.984ZM30.6752 258.984H26.3424V251.663H30.6644L30.6752 258.984ZM35.9049 258.984H31.5829V251.663H35.9049V258.984ZM41.1399 258.984H36.8179V251.663H41.1399V258.984ZM46.375 258.984H42.0529V251.663H46.375V258.984ZM51.6046 258.984H47.2826V251.663H51.6046V258.984ZM56.8342 258.984H52.5122V251.663H56.8342V258.984ZM62.0639 258.984H57.7419V251.663H62.0639V258.984Z" fill="#6C63FF"/>
<path opacity="0.1" d="M22.1611 275.521C22.2962 275.686 22.4259 275.871 22.5663 276.036H25.4243V279.553C25.7322 279.903 26.0347 280.253 26.3481 280.582V276.015H30.6701V283.363H28.9197C29.0926 283.532 29.26 283.713 29.4599 283.877H62.3235V275.521H22.1611ZM35.8889 283.363H31.5669V276.046H35.8889V283.363ZM41.124 283.363H36.802V276.046H41.124V283.363ZM46.359 283.363H42.037V276.046H46.359V283.363ZM51.5887 283.363H47.2666V276.046H51.5887V283.363ZM56.8183 283.363H52.4963V276.046H56.8183V283.363ZM62.0479 283.363H57.7259V276.046H62.0479V283.363Z" fill="#6C63FF"/>
<path opacity="0.1" d="M51.0049 299.9C51.4965 300.167 51.9989 300.415 52.5068 300.682V300.425H56.8288V302.742L57.7472 303.148V300.425H62.0692V304.878C62.1521 304.918 62.239 304.949 62.3286 304.971V299.9H51.0049Z" fill="#6C63FF"/>
<path opacity="0.1" d="M339.607 246.56C339.71 246.89 339.797 247.219 339.894 247.544C339.807 247.219 339.716 246.89 339.607 246.56ZM81.2969 94.811V97.0095H105.43V94.811H81.2969ZM339.607 246.56C339.71 246.89 339.797 247.219 339.894 247.544C339.807 247.219 339.716 246.89 339.607 246.56ZM339.607 246.56C339.71 246.89 339.797 247.219 339.894 247.544C339.807 247.219 339.716 246.89 339.607 246.56Z" fill="#6C63FF"/>
<path d="M249.38 195.476C249.38 195.476 247.251 195.193 247.251 192.238C247.251 189.282 245.728 183.763 245.728 183.763C245.728 183.737 244.41 174.151 242.589 172.627C240.768 171.103 238.429 162.155 238.429 162.155C238.429 162.155 238.029 157.299 237.214 156.254C236.398 155.209 235.296 152.65 233.669 149C232.043 145.35 225.263 142.822 225.263 142.822C225.263 142.822 213.005 136.046 209.531 133.837C209.215 133.656 208.92 133.444 208.65 133.204C208.045 132.447 205.409 132.432 205.409 132.432C205.133 130.774 204.869 128.869 204.782 127.144C204.782 126.959 204.782 126.774 204.755 126.588C208.629 124.406 211.546 120.966 212.972 116.899C213.037 116.703 213.091 116.497 213.151 116.301C213.383 116.228 213.596 116.11 213.778 115.954C213.959 115.798 214.104 115.608 214.204 115.395C214.518 114.731 214.523 113.954 214.912 113.336C215.366 112.605 216.23 112.213 216.911 111.662C218.629 110.272 219.072 107.93 218.991 105.798C218.937 104.073 218.645 102.333 218.759 100.619L218.791 100.186C218.823 99.9288 218.861 99.6714 218.91 99.4243C219.175 98.1474 219.753 96.9427 220.077 95.6761C220.401 94.4096 220.433 92.9834 219.677 91.8919C218.569 90.2907 216.263 89.9715 214.237 89.8067C211.941 89.6214 209.888 89.8634 208.418 88.0459C207.73 87.096 206.957 86.2053 206.106 85.3841C205.803 85.1164 202.864 83.407 202.864 83.2938C199.996 82.0277 196.745 81.79 193.707 82.6245C192.184 83.0466 190.746 83.7365 189.201 84.0815C185.868 84.8332 182.032 84.0197 179.201 85.8372C177.624 86.8669 176.678 88.5041 175.792 90.1002C175.072 91.4148 174.341 92.7277 173.599 94.0389C172.405 96.1961 171.189 98.3894 170.687 100.778C170.581 101.298 170.516 101.825 170.492 102.354V102.38C170.492 102.57 170.492 102.761 170.492 102.951V103.193C170.492 103.373 170.492 103.548 170.525 103.708C170.557 103.867 170.552 103.919 170.568 104.027C170.584 104.135 170.611 104.377 170.644 104.542C170.676 104.707 170.741 104.995 170.806 105.222C170.833 105.319 170.871 105.412 170.903 105.505C170.957 105.68 171.022 105.85 171.092 106.02C171.13 106.107 171.168 106.2 171.211 106.287C171.292 106.468 171.389 106.643 171.486 106.802C171.53 106.874 171.562 106.941 171.605 107.008C171.756 107.248 171.922 107.478 172.102 107.698C173.259 109.073 174.96 109.948 176.219 111.235C176.219 111.287 176.219 111.338 176.219 111.384C176.219 111.529 176.219 111.668 176.219 111.812C176.286 114.682 177.088 117.494 178.555 120.002C180.022 122.51 182.109 124.638 184.636 126.202C184.636 126.398 184.663 126.598 184.674 126.794C184.779 128.322 184.76 129.856 184.615 131.382C184.395 131.135 184.119 130.938 183.809 130.806C183.498 130.674 183.161 130.61 182.821 130.62C182.589 130.609 182.356 130.628 182.129 130.676L182.081 130.64V130.686C180.892 130.964 179.428 132.143 178.029 135.495C178.029 135.495 173.772 140.067 170.53 139.877C167.289 139.686 159.082 144.634 159.082 144.634C159.082 144.634 151.076 149.587 149.358 154.632C148.397 157.494 147.246 160.293 145.911 163.014L136.014 182.45L134.188 197.87C134.188 197.87 135.198 204.728 134.998 205.773C134.798 206.819 139.152 216.246 139.152 216.246C139.152 216.246 153.539 240.336 159.417 241.571L159.839 241.288C160.09 241.413 160.357 241.509 160.633 241.571L161.843 240.758C161.916 241.665 161.885 242.576 161.751 243.476C160.941 245.855 162.054 261.378 163.469 264.421C164.885 267.464 164.382 307.36 164.382 307.36L164.182 310.882C164.182 310.882 164.182 310.995 164.231 311.191L164.182 312.025L164.328 312.097C164.48 313.214 164.43 314.347 164.182 315.448C163.674 316.993 163.469 321.359 163.469 321.359C163.469 321.359 159.423 346.01 161.341 350.963C163.258 355.916 164.89 361.343 164.89 361.343C164.89 361.343 166.916 367.521 164.987 368.577C163.059 369.632 157.575 371.403 158.704 373.977C159.731 376.356 163.626 382.73 164.204 383.662L164.155 384.151L163.361 392.353C163.49 393.436 163.798 394.492 164.274 395.483C165.144 397.27 166.835 399.123 170.049 398.922C170.59 398.886 171.216 398.825 171.821 398.747C177.705 397.996 184.95 395.493 184.95 395.493C184.573 395.266 184.229 394.994 183.923 394.685C183.634 394.418 183.405 394.098 183.25 393.744C183.095 393.39 183.017 393.009 183.021 392.626C183.107 391.133 180.174 384.017 179.444 382.267C179.331 382.014 179.272 381.87 179.272 381.87C179.272 381.87 185.96 375.208 184.847 369.303C184.847 369.303 177.445 365.184 179.882 362.923C182.319 360.663 186.673 354.171 186.673 354.171C186.673 354.171 186.873 329.895 186.673 326.271C186.464 323.755 186.59 321.224 187.046 318.738C187.127 318.363 187.224 317.997 187.327 317.637C190.696 318.116 194.098 318.362 197.505 318.373C198.748 318.373 200.012 318.373 201.287 318.301C201.287 318.644 201.303 319.015 201.335 319.413C201.616 325.426 202.14 335.971 202.567 339.889C203.172 345.506 206.516 360.643 206.516 360.643C206.516 360.643 200.136 364.545 207.629 374.163C207.629 374.163 207.629 377.648 207.132 378.153C206.602 379.802 206.174 381.48 205.852 383.178C205.539 384.99 205.409 386.823 205.917 387.776C207.132 390.051 214.426 389.866 214.426 389.866L214.604 389.835C215.981 389.699 217.372 389.826 218.698 390.207C220.023 390.588 221.256 391.216 222.324 392.054C225.096 394.175 235.614 393.243 241.309 392.569C243.54 392.301 245.031 392.054 245.031 392.054C245.103 391.813 245.129 391.562 245.107 391.313C245.047 389.979 243.95 387.055 236.517 384.445C236.517 384.445 229.526 379.965 229.623 376.063H229.477H228.667C229.256 376.032 229.634 376.063 229.634 376.063C229.634 376.063 226.895 366.538 228.013 365.766C229.131 364.993 225.782 354.439 225.782 354.439C225.782 354.439 223.864 336.727 223.761 335.487C223.766 334.422 223.935 333.364 224.264 332.346L223.761 322.636C223.761 322.636 223.664 319.408 223.761 318.357C223.745 317.446 223.667 316.536 223.529 315.634C223.48 315.273 223.432 314.898 223.378 314.527C225.998 313.894 227.7 313.307 227.7 313.307L227.397 279.506C229.623 275.387 230.034 266.352 230.023 259.942C230.023 255.823 229.828 252.775 229.828 252.775L232.87 248.043C232.87 248.043 233.572 242.38 232.459 241.139C231.968 240.578 232.189 239.996 232.594 239.517C232.805 239.358 233.027 239.214 233.259 239.085C233.259 239.085 233.226 239.038 233.189 238.971C233.401 238.802 233.627 238.649 233.864 238.513C233.864 238.513 232.783 236.917 233.751 236.243C234.658 236.83 235.469 237.272 236.084 237.633C236.041 238.009 235.998 238.225 235.998 238.225L236.257 237.71C236.852 238.029 237.214 238.225 237.214 238.225C237.214 238.225 241.979 229.179 241.876 227.845C241.773 226.512 245.117 220.895 245.117 220.895C245.117 220.895 245.523 217.945 247.349 216.709C249.175 215.473 248.764 206.52 248.764 206.52C248.764 206.52 249.272 201.855 250.488 199.95C251.703 198.045 249.38 195.476 249.38 195.476ZM158.207 191.507L158.299 193.664C157.759 192.835 157.37 192.238 157.37 192.238L158.207 191.507Z" fill="url(#paint0_linear_2232_7312)"/>
<path d="M237.473 234.317L236.306 239.054C236.306 239.054 226.96 234.507 225.274 228.731C223.588 222.954 228.094 220.761 228.094 220.761L236.803 224.277L237.473 234.317Z" fill="white"/>
<path opacity="0.1" d="M237.473 234.317L236.306 239.054C236.306 239.054 226.96 234.507 225.274 228.731C223.588 222.954 228.094 220.761 228.094 220.761L236.803 224.277L237.473 234.317Z" fill="black"/>
<path d="M185.02 395.524C185.02 395.524 176.376 398.552 170.434 398.933C167.279 399.133 165.62 397.29 164.766 395.514C164.3 394.527 163.999 393.476 163.875 392.399L164.648 384.239L165.058 379.893L177.684 376.768L179.472 381.978L179.64 382.375C180.358 384.115 183.238 391.194 183.151 392.672C183.148 393.05 183.224 393.426 183.377 393.775C183.529 394.124 183.754 394.441 184.037 394.706C184.327 395.017 184.658 395.292 185.02 395.524Z" fill="white"/>
<path d="M244.064 391.374C244.086 391.622 244.06 391.872 243.989 392.111C243.989 392.111 225.501 395.05 221.719 392.111C220.653 391.252 219.41 390.615 218.071 390.241C216.731 389.867 215.324 389.763 213.94 389.938C213.94 389.938 206.787 390.123 205.593 387.879C205.096 386.936 205.226 385.109 205.533 383.307C205.848 381.618 206.266 379.949 206.787 378.307L207.073 378.091L208.775 376.789L228.699 376.227H228.851C228.753 380.109 235.615 384.563 235.615 384.563C242.903 387.137 243.978 390.046 244.064 391.374Z" fill="white"/>
<path opacity="0.1" d="M244.064 391.374C244.083 391.623 244.056 391.872 243.983 392.111C243.983 392.111 225.501 395.051 221.719 392.111C220.654 391.253 219.412 390.616 218.073 390.242C216.734 389.868 215.328 389.764 213.945 389.938C213.945 389.938 206.787 390.123 205.598 387.879C205.101 386.931 205.226 385.109 205.534 383.307C208.289 383.569 212.638 384.223 214.345 385.783C216.927 388.157 221.303 390.525 223.989 390.71C226.09 390.839 238.662 391.22 244.064 391.374Z" fill="black"/>
<path opacity="0.1" d="M185.02 395.524C185.02 395.524 176.376 398.552 170.433 398.933C167.278 399.133 165.62 397.29 164.771 395.509C166.97 396.214 170.023 396.956 171.627 396.276C173.529 395.473 180.271 394.953 184.053 394.731C184.341 395.032 184.666 395.298 185.02 395.524Z" fill="black"/>
<path d="M197.846 151.559C190.715 148.917 181.541 140.191 183.832 136.113C184.34 135.084 184.643 133.973 184.723 132.838C184.871 131.298 184.892 129.749 184.788 128.205C184.627 125.676 184.308 123.159 183.832 120.667C183.832 120.667 206.096 121.146 204.799 124.271C204.421 125.188 204.361 126.779 204.464 128.56C204.567 130.341 204.837 132.355 205.118 134.059C205.507 136.396 205.896 138.178 205.896 138.178C205.896 138.178 204.534 139.995 203.735 140.093C202.935 140.191 208.078 155.322 197.846 151.559Z" fill="#CF6F80"/>
<path opacity="0.1" d="M179.623 382.375L179.455 382.55C172.799 374.879 164.75 384.439 164.75 384.439L164.631 384.239L165.041 379.893L177.667 376.768L179.455 381.978L179.623 382.375Z" fill="black"/>
<path opacity="0.1" d="M228.856 376.768C228.856 376.768 223.994 376.67 221.401 378.853C218.807 381.036 206.274 379.327 206.814 378.853C206.974 378.618 207.07 378.35 207.095 378.071L208.797 376.768L228.721 376.207C228.797 376.552 228.856 376.768 228.856 376.768Z" fill="black"/>
<path d="M187.905 316.524C187.543 317.378 187.268 318.262 187.084 319.166C186.633 321.64 186.508 324.158 186.711 326.662C186.911 330.266 186.711 354.418 186.711 354.418C186.711 354.418 182.437 360.859 180.055 363.129C177.672 365.4 184.917 369.478 184.917 369.478C185.998 375.347 179.45 381.978 179.45 381.978C172.794 374.307 164.744 383.873 164.744 383.873C164.744 383.873 160.368 376.665 159.277 374.091C158.186 371.516 163.55 369.735 165.436 368.69C167.321 367.645 165.344 361.482 165.344 361.482C165.344 361.482 163.75 356.081 161.859 351.154C159.968 346.227 163.945 321.699 163.945 321.699C163.945 321.699 164.15 317.343 164.642 315.824C164.89 314.728 164.939 313.6 164.787 312.488C164.755 312.112 164.717 311.798 164.69 311.587C164.663 311.376 164.642 311.278 164.642 311.278L164.717 311.154L167.418 306.356C167.418 306.356 189.201 313.502 187.905 316.524Z" fill="#08A5A7"/>
<path d="M228.856 376.202C228.856 376.202 223.993 376.104 221.4 378.261C218.807 380.418 206.273 378.735 206.813 378.261C207.354 377.787 207.31 374.281 207.31 374.281C199.958 364.715 206.23 360.833 206.23 360.833C206.23 360.833 202.945 345.774 202.351 340.187C201.935 336.285 201.422 325.797 201.146 319.809C201.027 317.235 200.957 315.464 200.957 315.464L206.965 314.311L207.737 314.161L222.227 311.391C222.227 311.391 222.627 313.966 222.897 316.071C223.031 316.97 223.107 317.877 223.124 318.785C223.026 319.814 223.124 323.037 223.124 323.037L223.615 332.701C223.294 333.715 223.128 334.768 223.124 335.827C223.221 337.057 225.106 354.675 225.106 354.675C225.106 354.675 228.386 365.189 227.267 365.946C226.149 366.703 228.856 376.202 228.856 376.202Z" fill="#08A5A7"/>
<path opacity="0.1" d="M204.799 124.271C204.421 125.188 204.362 126.779 204.464 128.56C201.482 130.271 198.054 131.146 194.573 131.084C191.093 131.023 187.701 130.026 184.788 128.21C184.628 125.68 184.309 123.161 183.832 120.667C183.832 120.667 206.096 121.136 204.799 124.271Z" fill="black"/>
<path d="M213.405 112.893C213.41 114.748 213.103 116.592 212.498 118.356C211.144 122.306 208.369 125.674 204.662 127.863C200.955 130.053 196.555 130.923 192.24 130.319C187.925 129.716 183.973 127.679 181.082 124.567C178.191 121.455 176.547 117.47 176.441 113.315C176.441 113.171 176.441 113.037 176.441 112.893C176.399 110.554 176.846 108.231 177.756 106.059C178.667 103.887 180.021 101.909 181.742 100.241C183.463 98.5726 185.515 97.2478 187.778 96.3435C190.042 95.4391 192.472 94.9734 194.926 94.9734C197.38 94.9734 199.81 95.4391 202.074 96.3435C204.337 97.2478 206.389 98.5726 208.11 100.241C209.83 101.909 211.185 103.887 212.095 106.059C213.005 108.231 213.453 110.554 213.411 112.893H213.405Z" fill="#CF6F80"/>
<path opacity="0.1" d="M197.846 151.559C190.715 148.918 181.541 140.191 183.832 136.113C184.34 135.084 184.643 133.974 184.723 132.839L194.485 140.484L200.526 145.206L205.118 134.064C205.507 136.401 205.896 138.183 205.896 138.183C205.896 138.183 204.534 140 203.735 140.098C202.935 140.196 208.078 155.322 197.846 151.559Z" fill="black"/>
<path d="M223.091 185.349L214.939 315.866L204.307 316.53L176.775 240.851L181.292 151.003L182.243 132.02L194.485 141.602L200.53 146.323L205.257 134.857L214.047 142.158L223.091 185.349Z" fill="#08A5A7"/>
<path opacity="0.1" d="M187.905 316.524C187.543 317.378 187.268 318.262 187.084 319.166C179.348 318.027 171.834 315.79 164.793 312.529L164.647 312.457L164.696 311.628L164.723 311.196L167.424 306.397C167.424 306.397 189.202 313.502 187.905 316.524Z" fill="black"/>
<path opacity="0.1" d="M207.089 319.186C205.111 319.507 203.117 319.723 201.114 319.835C200.995 317.261 200.925 315.489 200.925 315.489L206.932 314.336L207.089 319.186Z" fill="black"/>
<path opacity="0.1" d="M222.865 316.097C219.023 317.05 213.091 318.12 207.781 317.451L207.705 314.187L222.195 311.417C222.195 311.417 222.594 313.966 222.865 316.097Z" fill="black"/>
<path opacity="0.1" d="M207.684 318.048C185.534 321.652 165.247 311.319 165.247 311.319L165.442 307.818C165.442 307.818 165.944 268.128 164.55 265.085C163.156 262.042 162.07 246.612 162.859 244.244C163.648 241.875 159.98 206.36 159.98 206.36L159.385 191.944L137.635 183.547L147.359 164.229C148.673 161.521 149.802 158.735 150.741 155.889C152.432 150.874 160.282 145.947 160.282 145.947C160.282 145.947 168.332 141.025 171.514 141.21C174.696 141.395 178.867 136.854 178.867 136.854C181.946 129.374 184.734 132.761 184.734 132.761C184.734 133.117 184.734 132.761 184.583 133.868C183.502 142.08 202.054 168.029 202.319 168.487L204.086 209.501L205.874 261.404L207.684 318.048Z" fill="black"/>
<path d="M207.09 318.049C184.939 321.653 164.647 311.319 164.647 311.319L164.847 307.818C164.847 307.818 165.35 268.128 163.951 265.085C162.551 262.042 161.471 246.612 162.265 244.244C163.059 241.875 159.385 206.36 159.385 206.36L158.786 191.944L137.024 183.516L146.749 164.199C148.06 161.489 149.189 158.703 150.131 155.858C151.817 150.843 159.672 145.916 159.672 145.916C159.672 145.916 167.722 140.994 170.898 141.179C174.075 141.365 178.251 136.824 178.251 136.824C181.336 129.343 184.734 132.731 184.734 132.731C184.734 133.086 184.41 133.245 184.583 133.837C186.96 141.802 201.46 167.998 201.725 168.457L203.513 209.47L205.301 261.373L207.09 318.049Z" fill="white"/>
<path opacity="0.1" d="M201.119 169.625C198.737 168.678 186.116 154.946 186.116 154.946V151.821C185.657 150.792 182.929 151.42 180.714 152.141L181.665 133.158L182.745 134.012C185.112 141.972 200.844 169.167 201.119 169.625Z" fill="black"/>
<path d="M201.719 168.487C199.331 167.54 186.711 153.809 186.711 153.809V150.684C186.252 149.654 183.524 150.282 181.309 151.003L182.265 132.02L183.345 132.875C185.717 140.834 201.455 168.034 201.719 168.487Z" fill="white"/>
<path opacity="0.1" d="M165.247 236.969C165.544 236.969 180.649 235.455 180.649 235.455C180.649 235.455 189.796 252.594 189.196 256.765C188.597 260.935 187.511 264.627 183.831 263.973C180.152 263.319 164.031 264.488 164.031 264.488L165.247 236.969Z" fill="black"/>
<path d="M164.647 235.831C164.944 235.831 180.05 234.317 180.05 234.317C180.05 234.317 189.191 251.462 188.597 255.627C188.002 259.792 186.906 263.489 183.232 262.835C179.558 262.181 163.432 263.35 163.432 263.35L164.647 235.831Z" fill="white"/>
<path d="M176.03 227.783C176.03 227.783 189.893 234.883 190.19 237.051C190.487 239.218 183.134 236.104 181.546 235.728C180.501 235.488 179.436 235.329 178.364 235.254L167.77 235.527L176.03 227.783Z" fill="#CF6F80"/>
<path opacity="0.1" d="M197.252 170.511C198.057 170.511 198.71 169.888 198.71 169.121C198.71 168.353 198.057 167.73 197.252 167.73C196.446 167.73 195.793 168.353 195.793 169.121C195.793 169.888 196.446 170.511 197.252 170.511Z" fill="black"/>
<path d="M197.252 169.944C198.057 169.944 198.71 169.322 198.71 168.554C198.71 167.786 198.057 167.164 197.252 167.164C196.446 167.164 195.793 167.786 195.793 168.554C195.793 169.322 196.446 169.944 197.252 169.944Z" fill="#3F3D56"/>
<path opacity="0.1" d="M199.936 230.687C200.742 230.687 201.395 230.065 201.395 229.297C201.395 228.529 200.742 227.907 199.936 227.907C199.131 227.907 198.478 228.529 198.478 229.297C198.478 230.065 199.131 230.687 199.936 230.687Z" fill="black"/>
<path d="M199.936 230.116C200.742 230.116 201.395 229.493 201.395 228.726C201.395 227.958 200.742 227.335 199.936 227.335C199.131 227.335 198.478 227.958 198.478 228.726C198.478 229.493 199.131 230.116 199.936 230.116Z" fill="#3F3D56"/>
<path opacity="0.1" d="M198.705 200.599C199.51 200.599 200.163 199.977 200.163 199.209C200.163 198.441 199.51 197.819 198.705 197.819C197.899 197.819 197.246 198.441 197.246 199.209C197.246 199.977 197.899 200.599 198.705 200.599Z" fill="black"/>
<path d="M198.705 200.033C199.51 200.033 200.163 199.41 200.163 198.643C200.163 197.875 199.51 197.252 198.705 197.252C197.899 197.252 197.246 197.875 197.246 198.643C197.246 199.41 197.899 200.033 198.705 200.033Z" fill="#3F3D56"/>
<path d="M232.33 234.966C232.33 234.966 233.324 236.387 232.33 237.051C231.336 237.715 232.427 239.321 232.427 239.321C232.427 239.321 229.948 240.706 231.039 241.952C232.13 243.198 231.439 248.826 231.439 248.826L228.457 253.532C228.457 253.532 228.635 256.564 228.646 260.662C228.646 267.057 228.251 276.046 226.069 280.145L226.371 313.77C226.371 313.77 215.928 317.405 207.187 316.298L205.89 262.341C205.89 262.341 207.781 231.743 208.478 225.873C208.886 222.826 209.052 219.754 208.975 216.683C208.975 216.683 208.678 207.498 207.679 203.235C207.679 203.235 206.598 184.767 206.49 179.655C206.441 177.209 206.576 170.073 206.728 163.287C206.895 155.868 207.084 148.871 207.084 148.871L205.112 134.002C205.112 134.002 207.084 133.812 207.679 134.568C207.945 134.805 208.234 135.017 208.543 135.202C211.946 137.395 223.973 144.14 223.973 144.14C223.973 144.14 230.628 146.662 232.222 150.277C233.816 153.891 234.923 156.455 235.696 157.485C236.469 158.514 236.89 163.354 236.89 163.354C236.89 163.354 239.181 172.261 240.969 173.77C242.757 175.278 244.064 184.875 244.064 184.875L228.262 196.717C228.262 196.717 226.874 216.415 226.577 217.177C226.279 217.939 232.33 234.966 232.33 234.966Z" fill="white"/>
<path d="M232.93 234.966C232.93 234.966 233.918 236.387 232.93 237.051C231.941 237.715 233.021 239.321 233.021 239.321C233.021 239.321 230.558 240.722 231.638 241.968C232.719 243.214 232.038 248.841 232.038 248.841L229.056 253.547C229.056 253.547 229.234 256.579 229.25 260.678C229.25 267.072 228.856 276.062 226.673 280.16L226.971 313.785C226.971 313.785 216.511 317.42 207.781 316.313L206.49 262.356C206.49 262.356 208.381 231.758 209.077 225.889C209.486 222.842 209.65 219.769 209.569 216.698C209.569 216.698 209.272 207.513 208.278 203.25C208.278 203.25 207.197 184.782 207.084 179.67C207.035 177.224 207.176 170.088 207.322 163.303C207.489 155.883 207.678 148.887 207.678 148.887L205.074 133.817C205.074 133.817 207.678 133.817 208.278 134.584C208.542 134.824 208.831 135.036 209.142 135.217C212.546 137.41 224.577 144.155 224.577 144.155C224.577 144.155 231.228 146.678 232.822 150.292C234.415 153.906 235.523 156.47 236.301 157.5C237.079 158.53 237.489 163.369 237.489 163.369C237.489 163.369 239.78 172.277 241.568 173.785C243.356 175.294 244.648 184.87 244.648 184.87L228.845 196.712C228.845 196.712 227.457 216.41 227.154 217.172C226.852 217.934 232.93 234.966 232.93 234.966Z" fill="white"/>
<path opacity="0.1" d="M214.005 153.258L215.431 157.222L207.921 164.43C208.089 157.016 208.278 150.014 208.278 150.014L205.674 134.944C205.674 134.944 208.278 134.944 208.878 135.711C209.14 135.951 209.43 136.161 209.742 136.34L216.128 153.896L214.005 153.258Z" fill="black"/>
<path d="M213.405 152.12L214.837 156.084L207.327 163.292C207.495 155.873 207.684 148.876 207.684 148.876L205.074 133.806C205.074 133.806 207.684 133.806 208.278 134.574C208.543 134.812 208.833 135.024 209.142 135.207L215.534 152.758L213.405 152.12Z" fill="white"/>
<path opacity="0.1" d="M213.405 112.893C213.41 114.748 213.103 116.592 212.498 118.356C212.396 118.371 212.291 118.366 212.191 118.342C212.091 118.319 211.997 118.276 211.914 118.217C211.774 113.583 209.38 109.232 206.436 105.531C205.609 104.413 204.607 103.423 203.465 102.596C202.309 101.769 200.873 101.382 199.434 101.509C197.814 101.721 196.382 102.771 194.745 102.905C192.584 103.075 190.65 101.648 188.505 101.576C187.633 101.584 186.773 101.769 185.982 102.119C185.191 102.469 184.488 102.975 183.918 103.605C182.792 104.875 181.954 106.355 181.46 107.95C180.611 110.369 180.148 112.896 180.088 115.447C180.061 116.888 179.915 118.695 178.51 119.221C178.616 118.16 178.49 117.091 178.139 116.08C177.788 115.068 177.221 114.138 176.474 113.346L176.441 113.315C176.441 113.171 176.441 113.037 176.441 112.893C176.399 110.554 176.846 108.231 177.756 106.059C178.667 103.887 180.021 101.909 181.742 100.241C183.463 98.5726 185.515 97.2478 187.778 96.3435C190.042 95.4391 192.472 94.9734 194.926 94.9734C197.38 94.9734 199.81 95.4391 202.074 96.3435C204.337 97.2478 206.389 98.5726 208.11 100.241C209.83 101.909 211.185 103.887 212.095 106.059C213.005 108.231 213.453 110.554 213.411 112.893H213.405Z" fill="black"/>
<path d="M202.579 84.9206C199.771 83.6621 196.578 83.4241 193.6 84.2513C192.103 84.6735 190.693 85.3582 189.175 85.7032C185.934 86.4497 182.152 85.6414 179.37 87.4485C177.824 88.4783 176.895 90.1052 176.031 91.6858L173.87 95.609C172.692 97.756 171.503 99.939 171.012 102.302C170.52 104.665 170.817 107.312 172.389 109.212C173.535 110.597 175.226 111.467 176.468 112.769C177.213 113.562 177.777 114.492 178.127 115.502C178.477 116.512 178.603 117.58 178.5 118.639C179.91 118.124 180.045 116.311 180.077 114.87C180.137 112.32 180.6 109.793 181.449 107.374C181.943 105.778 182.78 104.298 183.908 103.028C184.477 102.399 185.181 101.893 185.972 101.543C186.763 101.193 187.623 101.008 188.494 101C190.655 101.072 192.595 102.493 194.734 102.323C196.355 102.194 197.792 101.139 199.424 100.933C200.862 100.803 202.3 101.19 203.454 102.019C204.596 102.845 205.597 103.835 206.42 104.954C209.37 108.656 211.763 112.996 211.903 117.64C212.514 118.067 213.395 117.511 213.697 116.852C214 116.193 214.01 115.421 214.394 114.793C214.837 114.067 215.685 113.681 216.35 113.135C218.035 111.75 218.457 109.418 218.392 107.301C218.327 105.185 217.895 103.038 218.316 100.958C218.57 99.6816 219.143 98.4871 219.456 97.2257C219.77 95.9643 219.807 94.5484 219.067 93.4621C217.987 91.866 215.712 91.552 213.73 91.4027C211.477 91.2173 209.462 91.4541 208.024 89.647C207.35 88.7039 206.591 87.8185 205.755 87.0006C205.469 86.7329 202.579 85.0339 202.579 84.9206Z" fill="#512E4E"/>
<path opacity="0.1" d="M143.859 193.494L138.213 183.547L136.425 198.895C136.425 198.895 137.419 205.712 137.219 206.757C137.019 207.802 141.292 217.172 141.292 217.172C141.292 217.172 155.409 241.134 161.174 242.369L180.65 229.107L175.485 222.856C175.485 222.856 173.697 222.192 173.248 222.856C173.248 222.856 163.659 207.133 162.665 205.995C161.671 204.857 161.865 202.586 161.865 202.586C161.865 202.586 160.374 201.073 160.871 199.652C161.368 198.231 157.992 193.303 157.992 193.303L161.071 190.559L143.859 193.494Z" fill="black"/>
<path d="M138.51 182.414L137.019 183.547L135.23 198.895C135.23 198.895 136.225 205.712 136.025 206.757C135.825 207.802 140.104 217.172 140.104 217.172C140.104 217.172 154.215 241.134 159.979 242.37L179.461 229.107L174.291 222.856C174.291 222.856 172.502 222.192 172.054 222.856C172.054 222.856 162.465 207.133 161.471 205.995C160.476 204.857 160.676 202.586 160.676 202.586C160.676 202.586 159.185 201.073 159.682 199.652C160.179 198.231 156.797 193.304 156.797 193.304L159.877 190.559L138.51 182.414Z" fill="white"/>
<path opacity="0.1" d="M231.039 242.539C232.119 243.79 231.438 249.407 231.438 249.407L228.456 254.113C228.456 254.113 228.635 257.151 228.645 261.244L223.632 262.737C223.179 262.872 222.698 262.902 222.231 262.824C221.763 262.746 221.322 262.562 220.944 262.288C220.566 262.015 220.262 261.659 220.058 261.251C219.853 260.843 219.754 260.394 219.769 259.941L220.633 233.37L232.33 237.633C231.336 238.292 232.427 239.908 232.427 239.908C232.427 239.908 229.947 241.288 231.039 242.539Z" fill="black"/>
<path d="M231.639 241.968C232.719 243.219 232.038 248.841 232.038 248.841L229.056 253.547C229.056 253.547 229.235 256.58 229.251 260.678L224.145 262.197C223.702 262.328 223.231 262.357 222.774 262.28C222.316 262.203 221.884 262.023 221.514 261.755C221.144 261.487 220.847 261.139 220.647 260.739C220.447 260.34 220.35 259.9 220.364 259.458L221.233 232.803L232.935 237.067C231.936 237.726 233.027 239.337 233.027 239.337C233.027 239.337 230.558 240.722 231.639 241.968Z" fill="white"/>
<path d="M235.512 229.302C235.512 229.302 234.718 234.137 232.73 234.42C230.742 234.703 229.851 242.241 227.868 241.973C225.885 241.705 227.198 234.966 227.268 233.658C227.338 232.35 225.107 226.934 226.777 225.703C228.446 224.473 233.73 225.703 233.73 225.703L235.512 229.302Z" fill="#CF6F80"/>
<path opacity="0.1" d="M239.742 192.073L243.492 184.865C243.492 184.865 244.983 190.359 244.983 193.293C244.983 196.228 247.068 196.516 247.068 196.516C247.068 196.516 249.353 199.091 248.149 200.965C246.944 202.839 246.458 207.503 246.458 207.503C246.458 207.503 246.852 216.405 245.064 217.636C243.276 218.866 242.903 221.806 242.903 221.806C242.903 221.806 239.618 227.392 239.721 228.721C239.823 230.049 235.15 239.043 235.15 239.043C235.15 239.043 237.435 227.866 224.118 223.037C224.118 223.037 224.016 219.242 225.01 218.202C226.004 217.162 227.554 216.688 226.582 211.432C225.609 206.175 226.301 199.894 226.301 198.632C226.301 197.371 229.283 189.504 229.283 189.504L239.742 192.073Z" fill="black"/>
<path d="M241.362 183.835L244.636 184.865C244.636 184.865 246.133 190.358 246.133 193.293C246.133 196.228 248.218 196.516 248.218 196.516C248.218 196.516 250.504 199.09 249.299 200.965C248.094 202.839 247.613 207.503 247.613 207.503C247.613 207.503 248.008 216.405 246.219 217.636C244.431 218.866 244.031 221.806 244.031 221.806C244.031 221.806 240.752 227.392 240.855 228.721C240.957 230.049 236.279 239.043 236.279 239.043C236.279 239.043 238.569 227.866 225.247 223.036C225.247 223.036 225.149 219.242 226.144 218.202C227.138 217.162 228.688 216.688 227.716 211.432C226.743 206.175 227.435 199.894 227.435 198.632C227.435 197.371 230.417 189.504 230.417 189.504L241.362 183.835Z" fill="white"/>
<path opacity="0.1" d="M169.05 370.662C169.05 370.662 174.269 367.537 177.694 369.807C181.119 372.078 169.05 370.662 169.05 370.662Z" fill="black"/>
<path opacity="0.1" d="M209.602 360.998C209.602 360.998 214.221 360.431 218.1 364.411C221.979 368.391 209.602 360.998 209.602 360.998Z" fill="black"/>
<g opacity="0.1">
<path d="M216.36 112.007C215.695 112.553 214.842 112.944 214.399 113.67C214.02 114.293 214.01 115.06 213.707 115.73C213.405 116.399 212.524 116.945 211.913 116.523C211.773 111.889 209.374 107.538 206.43 103.831C205.607 102.713 204.606 101.723 203.464 100.897C202.308 100.068 200.869 99.6809 199.428 99.8104C197.808 100.021 196.381 101.072 194.744 101.2C192.583 101.376 190.644 99.9494 188.499 99.8773C187.627 99.8856 186.768 100.071 185.978 100.422C185.187 100.773 184.485 101.28 183.918 101.911C182.79 103.179 181.953 104.657 181.459 106.251C180.611 108.67 180.148 111.197 180.087 113.748C180.055 115.184 179.914 116.976 178.521 117.511C178.553 117.892 178.553 118.274 178.521 118.654C179.925 118.139 180.066 116.327 180.098 114.885C180.158 112.335 180.621 109.808 181.47 107.389C181.963 105.793 182.801 104.313 183.928 103.044C184.497 102.415 185.2 101.909 185.99 101.559C186.78 101.209 187.639 101.024 188.51 101.015C190.671 101.087 192.616 102.508 194.755 102.338C196.376 102.21 197.813 101.154 199.439 100.948C200.879 100.819 202.318 101.206 203.475 102.035C204.617 102.86 205.618 103.851 206.441 104.969C209.385 108.671 211.784 113.011 211.924 117.655C212.535 118.083 213.415 117.527 213.718 116.868C214.02 116.209 214.031 115.436 214.409 114.808C214.852 114.082 215.706 113.696 216.371 113.15C218.056 111.765 218.478 109.433 218.413 107.317C218.413 107.25 218.413 107.183 218.413 107.121C218.31 108.954 217.797 110.823 216.36 112.007Z" fill="black"/>
<path d="M176.479 111.642C175.236 110.339 173.54 109.469 172.4 108.089C171.44 106.868 170.892 105.397 170.828 103.873C170.658 105.778 171.216 107.678 172.4 109.222C173.54 110.607 175.236 111.477 176.479 112.78C177.672 114.054 178.388 115.669 178.516 117.372C178.598 116.336 178.461 115.294 178.111 114.309C177.761 113.324 177.206 112.417 176.479 111.642Z" fill="black"/>
<path d="M219.467 96.0983C219.148 97.3597 218.581 98.5593 218.322 99.831C218.168 100.681 218.112 101.544 218.154 102.405C218.172 101.915 218.228 101.426 218.322 100.943C218.581 99.6662 219.148 98.4718 219.467 97.2104C219.653 96.5146 219.713 95.7939 219.645 95.0789C219.612 95.4223 219.552 95.763 219.467 96.0983Z" fill="black"/>
</g>
<path opacity="0.1" d="M71.7076 391.596C100.781 391.596 124.35 387.988 124.35 383.538C124.35 379.088 100.781 375.481 71.7076 375.481C42.6341 375.481 19.0654 379.088 19.0654 383.538C19.0654 387.988 42.6341 391.596 71.7076 391.596Z" fill="#6C63FF"/>
<path d="M73.404 229.184H70.0166V301.866H73.404V229.184Z" fill="#535461"/>
<path d="M94.6896 301.645L94.4789 304.919L94.1764 309.553L94.0521 311.479L93.755 316.113L93.6253 318.038L93.3228 322.672L89.9084 375.223C89.76 377.484 88.7131 379.607 86.9808 381.158C85.2484 382.709 82.9609 383.574 80.5837 383.574H62.831C60.4543 383.573 58.1674 382.709 56.4359 381.158C54.7045 379.606 53.6587 377.484 53.5116 375.223L50.1134 322.636L49.8109 318.002L49.6867 316.076L49.3841 311.443L49.2598 309.517L48.9573 304.883L48.7412 301.609C48.7037 300.979 48.8017 300.348 49.0291 299.755C49.2566 299.162 49.6088 298.62 50.0641 298.161C50.5194 297.703 51.0682 297.338 51.6769 297.089C52.2855 296.84 52.9411 296.712 53.6035 296.713H89.9138C90.5737 296.718 91.2254 296.852 91.8287 297.107C92.4321 297.362 92.9742 297.732 93.4218 298.194C93.8693 298.656 94.2127 299.201 94.4307 299.794C94.6488 300.388 94.7369 301.018 94.6896 301.645Z" fill="#3F3D56"/>
<path d="M94.4788 304.919L94.1762 309.538H49.2381L48.9355 304.919H94.4788Z" fill="#9D9CB5"/>
<path d="M94.0529 311.463L93.7558 316.087H49.6658L49.3633 311.463H94.0529Z" fill="#9D9CB5"/>
<path d="M93.6261 318.018L93.3289 322.636H50.0926L49.79 318.018H93.6261Z" fill="#9D9CB5"/>
<path d="M43.7657 256.425C63.4903 270.028 71.7237 291.302 71.7237 291.302C71.7237 291.302 47.9526 290.524 28.2226 276.922C8.49262 263.319 0.275391 242.05 0.275391 242.05C0.275391 242.05 24.0357 242.823 43.7657 256.425Z" fill="#08A5A7"/>
<path d="M0.259766 242.05C0.259766 242.05 24.9385 255.102 32.8532 265.909C40.7679 276.716 71.7243 291.302 71.7243 291.302" stroke="#535461" stroke-width="2" stroke-miterlimit="10"/>
<path d="M56.5 229.024C67.2348 236.423 71.7243 248.002 71.7243 248.002C71.7243 248.002 58.7853 247.58 48.0451 240.181C37.3049 232.783 32.8262 221.198 32.8262 221.198C32.8262 221.198 45.7598 221.621 56.5 229.024Z" fill="#08A5A7"/>
<path d="M32.8262 221.198C32.8262 221.198 46.2568 228.304 50.5626 234.183C54.8685 240.063 71.7243 248.002 71.7243 248.002" stroke="#535461" stroke-width="2" stroke-miterlimit="10"/>
<path d="M87.3106 247.415C74.9766 260.333 72.3672 277.215 72.3672 277.215C72.3672 277.215 89.7579 273.148 102.081 260.225C114.404 247.302 117.024 230.425 117.024 230.425C117.024 230.425 99.6445 234.497 87.3106 247.415Z" fill="#08A5A7"/>
<path d="M117.035 230.43C117.035 230.43 100.968 243.672 96.8838 252.795C92.7995 261.919 72.3672 277.215 72.3672 277.215" stroke="#535461" stroke-width="2" stroke-miterlimit="10"/>
<path d="M540.074 242.869C540.074 242.869 531.154 200.578 534.568 195.316C534.568 195.316 534.693 190.425 534.487 184.19C534.487 183.954 534.487 183.717 534.487 183.475C535.088 183.856 535.714 184.2 536.362 184.504C539.508 186.045 543.12 186.489 546.573 185.761L543.871 182.893C543.223 182.208 542.548 181.467 542.407 180.561C542.267 179.654 542.656 178.846 542.991 178.038C545.557 171.86 545.692 164.09 540.749 159.374C536.573 155.41 535.557 150.292 531.024 146.673C527.713 144.021 525.892 140.134 524.174 136.376C522.721 133.199 521.257 129.996 520.425 126.629C519.776 123.998 519.517 121.275 518.626 118.706C517.734 116.136 516.065 113.639 513.455 112.491C512.526 112.085 511.494 111.853 510.646 111.312C509.533 110.597 508.863 109.433 508.058 108.414C503.968 103.265 490.273 106.297 483.79 108.388C482.028 108.914 480.395 109.776 478.993 110.921L479.052 110.828C479.101 110.751 479.16 110.674 479.214 110.597C478.505 111.143 477.892 111.795 477.399 112.527C476.453 113.953 476.059 115.616 475.27 117.161C474.319 118.989 469.03 124.091 471.305 126.145C471.464 126.283 471.647 126.395 471.845 126.475C472.699 126.813 473.639 126.903 474.546 126.732L474.449 126.954C473.672 128.766 473.274 130.706 473.277 132.663C473.277 141.122 480.597 147.98 489.636 147.98C491.335 147.982 493.024 147.734 494.644 147.244C494.682 147.44 494.714 147.635 494.752 147.831C494.752 147.908 494.779 147.986 494.79 148.063L494.503 148.444C494.489 148.42 494.473 148.398 494.455 148.377L485.973 159.673C484.676 160.543 477.21 165.692 476.788 169.553C476.345 173.78 475.902 178.728 475.902 178.728L475.843 179.788C475.472 180.084 475.039 180.299 474.572 180.419C474.106 180.539 473.618 180.561 473.142 180.483C470.494 180.072 470.494 189.751 470.494 189.751C470.494 189.751 468.733 191.295 467.523 189.957C466.313 188.618 463.115 193.154 463.115 193.154L443.071 193.978L442.612 194.004L441.532 190.817C441.415 190.48 441.164 190.202 440.834 190.041C440.503 189.88 440.119 189.849 439.765 189.957C439.681 189.983 439.6 190.016 439.522 190.055L439.446 190.096L439.306 190.188L439.235 190.25C439.197 190.284 439.161 190.32 439.127 190.358L439.063 190.43L439.03 190.461C438.905 190.626 438.823 190.816 438.789 191.016C438.755 191.216 438.771 191.421 438.836 191.615L439.765 194.349C435.897 195.09 431.942 197.18 435.167 202.936L418.819 200.058L424.108 204.29L451.413 209.66C451.051 210.278 451.288 211.174 452.418 212.435C457.28 217.878 466.14 219.355 469.706 219.736C470.647 221.744 471.824 223.643 473.212 225.4L472.904 230.821C472.904 230.821 463.876 272.144 462.223 274.239C463.058 273.338 463.822 272.379 464.508 271.371C461.888 279.861 458.225 291.482 457.264 293.222C455.719 296.002 454.287 307.252 456.048 307.973C456.588 308.194 458.133 308.086 460.338 307.926V308.858L460.24 344.172C460.24 344.172 460.683 365.832 459.468 367.897C458.252 369.961 457.928 374.291 457.928 374.291C457.928 374.291 453.066 382.833 449.214 386.267C449.188 386.294 449.159 386.318 449.127 386.339L449.009 385.536C449.009 385.536 444.379 391.107 434.135 390.793C434.135 390.793 427.971 394.613 437.112 394.819C446.253 395.025 457.928 394.51 457.928 394.51C457.928 394.51 466.081 382.668 472.909 384.213V393.187H475V384.069C475.97 383.46 476.8 382.671 477.439 381.748C478.079 380.824 478.516 379.787 478.722 378.699C478.901 377.577 478.77 376.429 478.342 375.37C477.914 374.311 477.203 373.377 476.281 372.659C475.866 372.302 475.533 371.867 475.304 371.382C475.074 370.896 474.952 370.37 474.946 369.838L474.87 369.9C474.87 369.719 474.822 369.534 474.8 369.344C474.201 364.71 473.45 355.149 476.102 348.075C479.738 338.375 480.84 324.865 478.193 316.823C477.339 314.252 476.637 311.638 476.091 308.992C476.027 308.657 475.967 308.338 475.913 308.039C477.723 308.273 479.515 308.617 481.278 309.069C487.41 310.681 500.824 310.979 512.278 310.892C512.305 311.19 512.337 311.504 512.375 311.819C512.579 314.002 513.006 316.16 513.65 318.265C515.087 322.383 515.746 340.542 515.746 340.542C515.746 340.542 517.599 355.473 516.589 361.549C516.049 364.926 515.508 368.319 515.2 371.727V371.794C515.2 371.794 512.164 380.032 509.944 384.506C509.89 384.619 509.83 384.733 509.776 384.841C509.184 384.892 508.601 385.015 508.042 385.206C508.042 385.206 505.065 390.87 502.099 391.807C499.133 392.744 500.116 395.828 506.832 394.695C513.547 393.563 523.688 392.636 523.688 392.636L524.125 386.859L526.189 384.398L525.649 390.159L527.848 389.747L527.556 382.74L530.932 378.714C530.932 378.714 535.011 375.254 528.95 368.448V368.597C528.885 368.499 528.825 368.396 528.755 368.298V368.268C527.75 366.785 526.951 364.02 528.415 359.113C531.062 350.248 532.602 342.2 532.602 342.2C532.602 342.2 538.512 320.643 531.408 310.444H531.721C530.993 309.009 530.479 307.484 530.192 305.913C530.156 305.728 530.124 305.537 530.095 305.342C535.352 305.053 540.511 304.147 544.72 302.191C544.703 302.17 542.17 251.014 540.074 242.869ZM473.336 207.189V207.292L472.256 207.344L473.336 207.189ZM469.63 207.678C469.452 207.716 469.286 207.791 469.144 207.9C468.679 208.526 468.388 209.254 468.296 210.016L466.61 209.655C466.61 209.655 465.427 209.413 463.725 209.14L462.92 208.368C465.135 208.193 467.437 207.936 469.63 207.678Z" fill="url(#paint1_linear_2232_7312)"/>
<path d="M525.401 382.812L524.758 390.108L526.913 389.696L526.589 381.783L525.401 382.812Z" fill="#1D2366"/>
<path d="M476.221 348.173C473.623 355.226 474.358 364.746 474.941 369.369C475.157 371.079 475.357 372.119 475.357 372.119C475.357 372.119 471.473 380.552 471.148 380.871C470.824 381.191 459.717 387.652 459.717 387.652L451.953 391.972C451.953 391.972 444.076 388.682 447.853 387.549C448.624 387.254 449.319 386.802 449.89 386.226C453.671 382.802 458.42 374.291 458.42 374.291C458.42 374.291 458.744 369.972 459.933 367.918C461.121 365.863 460.689 344.275 460.689 344.275L460.781 309.085V304.497L475.557 304.6C475.65 306.158 475.863 307.706 476.194 309.234C476.725 311.871 477.412 314.477 478.253 317.039C480.857 325.066 479.776 338.509 476.221 348.173Z" fill="#FFB0B1"/>
<path opacity="0.1" d="M475.357 372.119C475.357 372.119 471.473 380.552 471.148 380.872C470.824 381.191 459.717 387.652 459.717 387.652L451.953 391.972C451.953 391.972 444.076 388.682 447.853 387.549C448.624 387.254 449.319 386.803 449.89 386.226L450.225 388.476L452.812 388.373L474.963 369.38C475.157 371.079 475.357 372.119 475.357 372.119Z" fill="black"/>
<path d="M475.087 369.859L452.812 388.98L450.224 389.083L449.684 385.479C449.684 385.479 445.157 391.03 435.097 390.721C435.097 390.721 429.057 394.525 438.009 394.731C446.961 394.937 458.393 394.423 458.393 394.423C458.393 394.423 466.378 382.581 473.061 384.125V393.068H475.114V384.043C476.068 383.431 476.883 382.641 477.508 381.72C478.134 380.8 478.558 379.769 478.755 378.688C478.933 377.576 478.807 376.438 478.39 375.385C477.972 374.331 477.278 373.398 476.372 372.675C475.968 372.314 475.645 371.878 475.424 371.393C475.203 370.909 475.088 370.387 475.087 369.859Z" fill="#1D2366"/>
<path d="M527.454 359.17C526.017 364.061 526.8 366.816 527.783 368.293V368.324C529.044 370.149 529.921 372.189 530.366 374.333L530.452 374.796L520.317 388.877L514.817 390.937C514.817 390.937 505.973 388.059 507.589 387.235C507.994 387.034 508.626 385.963 509.35 384.486C511.511 380.032 514.493 371.815 514.493 371.815V371.748C514.806 368.355 515.304 364.972 515.855 361.605C516.843 355.545 515.028 340.671 515.028 340.671C515.028 340.671 514.38 322.584 512.975 318.47C512.341 316.379 511.919 314.234 511.716 312.066C511.424 309.491 511.36 307.37 511.36 307.37C511.36 307.37 517.184 299.647 527.859 307.988C528.713 308.653 529.464 309.43 530.09 310.295C537.465 320.293 531.527 342.319 531.527 342.319C531.527 342.319 530.042 350.33 527.454 359.17Z" fill="#FFB0B1"/>
<path opacity="0.1" d="M530.468 374.796L520.333 388.878L514.833 390.937C514.833 390.937 505.989 388.059 507.604 387.235C508.01 387.034 508.642 385.963 509.366 384.486C513.11 384.455 515.049 387.853 515.049 387.853L519.792 387.132C519.792 387.132 526.049 375.414 527.453 374.698C528.858 373.983 527.669 369.349 527.669 369.349V368.17C527.707 368.211 527.74 368.257 527.783 368.299V368.33C529.044 370.154 529.921 372.195 530.365 374.338L530.468 374.796Z" fill="black"/>
<path d="M515.373 388.157C515.373 388.157 512.672 383.43 507.496 385.176C507.496 385.176 504.584 390.839 501.672 391.756C498.76 392.672 499.733 395.761 506.313 394.634C512.893 393.506 522.812 392.574 522.812 392.574L523.245 386.813L529.933 378.694C529.933 378.694 533.92 375.249 527.988 368.469V369.648C527.988 369.648 529.177 374.281 527.772 374.997C526.367 375.713 520.133 387.436 520.133 387.436L515.373 388.157Z" fill="#1D2366"/>
<path opacity="0.1" d="M475.573 304.59C475.667 306.147 475.88 307.696 476.211 309.224C470.128 308.374 464.482 308.796 460.781 309.074V304.487L475.573 304.59Z" fill="black"/>
<path opacity="0.1" d="M530.689 311.577C530.689 311.577 522.045 311.978 511.737 312.061C511.446 309.486 511.381 307.365 511.381 307.365C511.381 307.365 517.205 299.642 527.88 307.983C528.734 308.648 529.485 309.425 530.111 310.289C530.279 310.728 530.472 311.158 530.689 311.577Z" fill="black"/>
<path d="M530.689 310.65C530.689 310.65 492.828 312.395 481.288 309.311C469.749 306.227 458.312 308.899 456.588 308.184C454.865 307.468 456.264 296.26 457.777 293.485C459.289 290.71 467.588 262.645 467.588 262.645L475.573 222.97L483.984 220.761L484.579 220.601L499.236 216.75L509.976 213.924C509.976 213.924 531.332 293.382 529.5 299.241C528.835 301.484 528.728 303.845 529.187 306.135C529.467 307.699 529.972 309.218 530.689 310.65Z" fill="#1D2366"/>
<path d="M447.74 195.836C447.74 195.836 440.176 203.559 445.903 207.864C451.629 212.168 455.395 208.275 455.395 208.275L447.74 195.836Z" fill="#C7DAF5"/>
<path opacity="0.1" d="M447.74 195.836C447.74 195.836 440.176 203.559 445.903 207.864C451.629 212.168 455.395 208.275 455.395 208.275L447.74 195.836Z" fill="black"/>
<path d="M508.847 145.061C508.847 145.061 507.961 145.864 506.626 147.049C504.724 148.743 501.91 151.219 499.414 153.294C495.956 156.162 493.104 158.267 494.125 156.471C495.146 154.674 494.951 151.543 494.443 148.614C494.406 148.418 494.373 148.223 494.335 148.032C493.915 145.881 493.357 143.755 492.666 141.668C492.666 141.668 498.252 134.79 501.342 132.077C502.493 131.047 503.298 130.625 503.347 131.34C503.401 132.303 504.157 134.429 505.097 136.685C505.124 136.757 505.151 136.824 505.184 136.896C505.81 138.44 506.518 140.026 507.139 141.396C508.09 143.496 508.847 145.061 508.847 145.061Z" fill="#FFB0B1"/>
<path opacity="0.1" d="M505.184 136.896C504.659 139.587 503.385 142.094 501.496 144.155C499.606 146.216 497.171 147.756 494.443 148.614C494.014 146.264 493.42 143.943 492.666 141.668C492.666 141.668 503.185 128.72 503.347 131.34C503.385 132.334 504.206 134.538 505.184 136.896Z" fill="black"/>
<path opacity="0.1" d="M493.396 152.074L494.757 150.246C494.757 150.246 495.66 155.487 498.977 153.175C502.294 150.864 502.456 170.572 502.456 170.572L498.896 221.301L473.169 219.834L473.898 195.322L476.81 182.965L484.012 165.002L488.296 159.065L493.396 152.074Z" fill="black"/>
<path d="M502.455 170.887L499.214 216.755L498.874 221.615L484.53 220.797L483.99 220.766L473.185 220.148L473.914 195.631L476.826 183.274L484.027 165.311L488.312 159.374L493.412 152.357L494.773 150.534C494.773 150.534 495.675 155.775 498.992 153.464L499.063 153.417C502.304 151.461 502.455 170.887 502.455 170.887Z" fill="#1D2366"/>
<path d="M477.189 178.98C477.189 178.98 475.897 181.555 473.304 181.137C470.711 180.72 470.716 190.405 470.716 190.405C470.716 190.405 468.993 191.949 467.804 190.611C466.616 189.272 463.482 193.798 463.482 193.798L443.85 194.622C443.85 194.622 452.585 198.426 450.873 209.939C450.873 209.939 480.533 208.188 481.505 205.516C482.478 202.844 477.189 178.98 477.189 178.98Z" fill="white"/>
<path opacity="0.03" d="M477.189 178.98C477.189 178.98 475.897 181.555 473.304 181.137C470.711 180.72 470.716 190.405 470.716 190.405C470.716 190.405 468.993 191.949 467.804 190.611C466.616 189.272 463.482 193.798 463.482 193.798L443.85 194.622C443.85 194.622 452.585 198.426 450.873 209.939C450.873 209.939 480.533 208.188 481.505 205.516C482.478 202.844 477.189 178.98 477.189 178.98Z" fill="black"/>
<path d="M420.132 200.671L425.307 204.883L467.912 213.414L462.628 208.276L420.132 200.671Z" fill="white"/>
<path d="M493.477 153.696C492.769 154.725 490.743 159.997 489.052 164.6C487.642 168.436 486.464 171.808 486.464 171.808C486.464 171.808 483.714 188.871 482.31 191.955C480.905 195.039 481.667 207.066 481.667 207.066L476.432 236.768C476.432 236.768 474.06 252.085 470.397 261.234C466.783 270.239 462.758 274.461 462.634 274.594C464.255 272.504 473.088 231.346 473.088 231.346L476.005 179.438C476.005 179.438 476.432 174.506 476.864 170.289C477.296 166.073 486.048 160.317 486.048 160.317L494.487 148.882C495.335 149.963 494.768 151.847 493.477 153.696Z" fill="white"/>
<path d="M471.472 220.406C471.472 220.406 459.046 219.891 453.028 213.002C447.01 206.113 466.939 210.253 466.939 210.253L472.121 211.385L471.472 220.406Z" fill="#FFB0B1"/>
<path opacity="0.1" d="M529.501 299.246C528.835 301.489 528.728 303.85 529.187 306.14C515.632 307.056 501.132 303.565 501.132 303.565C498.431 305.934 491.316 309.425 491.316 309.425L487.437 263.602C484.957 257.424 483.984 225.055 483.984 225.055C483.984 225.055 484.206 223.361 484.525 220.823C484.525 220.761 484.525 220.694 484.552 220.632C485.519 213.543 487.437 200.233 488.377 198.437C489.673 195.965 484.39 189.391 484.39 189.391L486.794 169.852L487.085 167.494C492.153 165.336 496.037 158.448 496.037 158.448L499.02 153.469C502.261 151.487 502.429 170.912 502.429 170.912L499.187 216.781L509.927 213.954C509.927 213.954 531.332 293.387 529.501 299.246Z" fill="black"/>
<path d="M543.412 302.412C528.636 309.404 501.78 302.927 501.78 302.927C499.079 305.295 491.964 308.786 491.964 308.786L488.08 262.964C485.605 256.785 484.633 224.416 484.633 224.416C484.633 224.416 487.755 200.264 489.052 197.798C489.43 197.077 489.247 196.006 488.798 194.853C486.594 189.364 485.783 183.456 486.432 177.611L487.469 169.213L487.755 166.86C492.828 164.698 496.713 157.809 496.713 157.809L499.414 153.299L504.384 144.989L506.74 141.056L507.14 141.401L510.192 144.037C510.192 144.037 511.489 145.066 513.434 146.611C517.664 150.009 524.973 155.992 528.744 159.652C532.062 162.875 533.11 175.412 533.412 184.849C533.612 191.064 533.493 195.934 533.493 195.934C530.149 201.181 538.896 243.301 538.896 243.301C540.932 251.441 543.412 302.412 543.412 302.412Z" fill="white"/>
<path opacity="0.03" d="M515.049 157.706C515.049 157.706 504.909 176.102 506.086 183.094C507.264 190.086 510.614 197.999 508.998 199.847C508.443 200.548 507.726 201.116 506.902 201.508C506.078 201.9 505.17 202.105 504.249 202.108C502.629 202.211 498.307 205.089 498.307 205.397C498.307 205.706 494.314 205.706 490.743 207.148C487.172 208.59 481.899 209.408 481.899 209.408C481.899 209.408 471.635 209.099 470.678 210.026C469.722 210.953 468.739 216.498 470.786 220.92C472.834 225.343 475.108 228.643 476.826 229.246C478.544 229.848 489.447 226.368 498.291 225.544C507.134 224.72 516.735 218.042 516.735 218.042C516.735 218.042 527.307 214.438 529.16 208.378C531.014 202.319 526.897 169.012 526.897 169.012C526.897 169.012 523.785 153.489 515.049 157.706Z" fill="black"/>
<path opacity="0.03" d="M513.752 156.162C513.752 156.162 503.612 174.563 504.8 181.549C505.989 188.536 509.328 196.454 507.707 198.308C507.154 199.009 506.437 199.578 505.614 199.97C504.791 200.362 503.884 200.567 502.963 200.568C501.343 200.671 497.021 203.549 497.021 203.858C497.021 204.167 493.028 204.167 489.457 205.603C485.886 207.04 480.613 207.864 480.613 207.864C480.613 207.864 470.348 207.555 469.398 208.481C468.447 209.408 467.453 214.958 469.506 219.376C471.559 223.793 473.828 227.099 475.546 227.701C477.264 228.303 488.166 224.823 497.01 224.004C505.854 223.186 515.454 216.498 515.454 216.498C515.454 216.498 526.021 212.894 527.853 206.839C529.684 200.784 525.589 167.468 525.589 167.468C525.589 167.468 522.488 151.95 513.752 156.162Z" fill="black"/>
<path d="M514.731 156.779C514.731 156.779 504.59 175.18 505.779 182.167C506.967 189.154 510.306 197.072 508.691 198.92C508.138 199.623 507.421 200.194 506.597 200.587C505.772 200.98 504.864 201.185 503.942 201.186C502.321 201.289 497.999 204.167 497.999 204.471C497.999 204.774 494.012 204.78 490.436 206.221C486.859 207.663 481.592 208.481 481.592 208.481C481.592 208.481 471.327 208.172 470.371 209.099C469.414 210.026 468.431 215.576 470.479 219.994C472.526 224.411 474.801 227.716 476.519 228.319C478.237 228.921 489.139 225.441 497.983 224.617C506.827 223.793 516.427 217.116 516.427 217.116C516.427 217.116 527 213.512 528.853 207.452C530.706 201.392 526.616 168.086 526.616 168.086C526.616 168.086 523.461 152.588 514.731 156.779Z" fill="white"/>
<path opacity="0.1" d="M514.509 206.134C514.509 206.134 506.405 204.589 509.225 207.163C512.045 209.738 512.029 211.993 515.481 211.89C518.933 211.787 514.509 206.134 514.509 206.134Z" fill="black"/>
<path opacity="0.1" d="M528.204 261.522C528.204 261.522 524.541 263.885 531.548 269.333C538.555 274.78 528.204 261.522 528.204 261.522Z" fill="black"/>
<path opacity="0.1" d="M521.213 280.948C521.213 281.257 519.916 292.275 524.768 295.029C529.619 297.784 521.213 280.948 521.213 280.948Z" fill="black"/>
<path d="M444.184 194.596C440.273 194.724 431.823 195.862 436.205 203.652C440.079 210.546 446.589 205.938 450.251 202.442C449.358 199.183 447.186 196.374 444.184 194.596Z" fill="#FFB0B1"/>
<path opacity="0.1" d="M513.434 146.925C509.285 149.628 505.806 151.909 505.125 152.382C503.267 153.695 499.723 161.403 497.437 165.336C495.617 168.503 489.701 169.316 487.47 169.517L487.756 167.164C492.829 165.002 496.713 158.113 496.713 158.113L506.741 141.359L510.193 144.351C510.193 144.351 511.489 145.38 513.434 146.925Z" fill="black"/>
<path d="M513.434 146.616C509.285 149.319 505.806 151.6 505.125 152.079C503.267 153.387 499.723 161.094 497.437 165.027C495.617 168.194 489.701 169.007 487.47 169.208L487.756 166.855C492.829 164.693 496.713 157.804 496.713 157.804L506.741 141.051L510.193 144.032C510.193 144.032 511.489 145.051 513.434 146.616Z" fill="#DCE7FF"/>
<path d="M505.449 133.498C505.451 136.588 504.468 139.607 502.629 142.152C500.457 145.162 497.225 147.331 493.519 148.264C489.813 149.197 485.879 148.834 482.431 147.239C478.982 145.645 476.247 142.925 474.723 139.573C473.199 136.222 472.985 132.46 474.122 128.972C475.259 125.483 477.67 122.498 480.919 120.559C484.167 118.62 488.037 117.855 491.827 118.402C495.617 118.95 499.075 120.774 501.574 123.543C504.074 126.313 505.448 129.845 505.449 133.498Z" fill="#FFB0B1"/>
<path opacity="0.1" d="M533.412 184.855C531.218 183.569 529.431 181.739 528.242 179.562C527.34 177.863 526.74 175.901 525.2 174.697C523.812 173.615 521.959 173.353 520.23 172.869C514.547 171.268 509.782 166.325 509.603 160.682C509.517 158.025 510.387 155.374 509.992 152.743C509.768 151.254 509.147 149.845 508.188 148.65C507.712 148.078 507.19 147.543 506.626 147.049C505.87 146.369 505.076 145.71 504.384 144.989C503.949 144.543 503.568 144.051 503.25 143.522C502.993 143.089 502.785 142.632 502.629 142.158C501.548 139.007 502.531 135.269 501.343 132.082L501.278 131.907C500.83 130.774 499.916 129.641 498.647 129.554C497.377 129.466 496.291 130.47 495.081 130.918C492.547 131.855 489.814 130.259 487.701 128.632C485.589 127.005 483.207 125.147 480.521 125.507C478.744 125.749 477.339 126.902 475.702 127.5C475.333 127.636 474.951 127.741 474.562 127.814C475.948 124.521 478.493 121.791 481.761 120.093C485.029 118.394 488.815 117.834 492.47 118.507C496.125 119.18 499.419 121.045 501.788 123.782C504.156 126.518 505.451 129.955 505.449 133.503C505.45 134.574 505.333 135.642 505.098 136.69C505.125 136.762 505.152 136.829 505.184 136.901C505.811 138.445 506.518 140.031 507.14 141.401L510.192 144.037C510.192 144.037 511.489 145.066 513.434 146.611C517.664 150.009 524.973 155.992 528.744 159.652C532.061 162.886 533.099 175.417 533.412 184.855Z" fill="black"/>
<path d="M475.513 118.093C476.286 116.595 476.67 114.916 477.593 113.495C478.949 111.436 481.316 110.118 483.747 109.32C490.095 107.235 503.509 104.207 507.518 109.32C508.307 110.35 508.96 111.493 510.052 112.203C510.884 112.744 511.889 112.975 512.802 113.382C515.357 114.525 516.988 117.017 517.858 119.56C518.728 122.104 518.987 124.833 519.625 127.453C520.441 130.815 521.872 134.002 523.299 137.169C524.979 140.906 526.762 144.783 530.003 147.425C534.428 151.029 535.406 156.131 539.512 160.085C544.374 164.78 544.217 172.529 541.71 178.682C541.381 179.49 541.008 180.334 541.138 181.194C541.267 182.054 541.937 182.836 542.569 183.521L545.227 186.379C538.939 187.825 531.824 184.695 528.896 179.202C527.993 177.503 527.394 175.546 525.849 174.336C524.466 173.255 522.607 172.998 520.884 172.514C515.2 170.907 510.435 165.959 510.257 160.317C510.171 157.665 511.04 155.014 510.646 152.388C510.427 150.889 509.803 149.47 508.836 148.269C507.35 146.421 505.108 145.18 503.898 143.12C501.851 139.676 503.407 135.202 501.932 131.505C501.478 130.372 500.57 129.24 499.301 129.152C498.031 129.065 496.945 130.069 495.73 130.517C493.201 131.454 490.468 129.863 488.355 128.231C486.243 126.599 483.86 124.745 481.17 125.111C479.392 125.347 477.993 126.501 476.356 127.103C475.146 127.546 472.693 127.942 471.634 126.969C469.398 125.008 474.579 119.926 475.513 118.093Z" fill="#591D4B"/>
<path opacity="0.1" d="M530.398 177.503C529.49 175.803 528.896 173.847 527.351 172.642C525.968 171.561 524.109 171.298 522.38 170.814C516.702 169.213 511.937 164.266 511.754 158.623C511.667 155.971 512.537 153.314 512.148 150.689C511.922 149.199 511.299 147.79 510.338 146.596C508.847 144.747 506.605 143.506 505.4 141.447C503.353 138.008 504.909 133.534 503.428 129.832C502.98 128.704 502.067 127.572 500.803 127.479C499.539 127.386 498.442 128.401 497.232 128.848C494.703 129.785 491.964 128.189 489.857 126.562C487.75 124.936 485.357 123.077 482.672 123.437C480.895 123.679 479.49 124.833 477.858 125.43C476.648 125.873 474.19 126.274 473.131 125.301C470.905 123.242 476.086 118.17 477.016 116.348C477.788 114.844 478.172 113.171 479.101 111.75C479.15 111.673 479.204 111.596 479.258 111.518C478.563 112.067 477.963 112.717 477.48 113.444C476.556 114.865 476.173 116.533 475.4 118.042C474.466 119.864 469.285 124.951 471.516 126.995C472.596 127.973 475.027 127.572 476.238 127.129C477.858 126.526 479.274 125.373 481.051 125.136C483.752 124.771 486.13 126.629 488.237 128.256C490.344 129.883 493.099 131.479 495.616 130.542C496.827 130.094 497.885 129.085 499.182 129.178C500.479 129.271 501.343 130.398 501.813 131.531C503.288 135.228 501.732 139.702 503.78 143.146C504.99 145.169 507.232 146.436 508.718 148.295C509.684 149.495 510.308 150.914 510.527 152.413C510.922 155.039 510.052 157.691 510.138 160.342C510.317 166.006 515.082 170.933 520.765 172.539C522.478 173.023 524.347 173.281 525.73 174.362C527.281 175.572 527.891 177.528 528.777 179.227C531.705 184.721 538.82 187.851 545.109 186.404L543.856 185.055C538.404 185.133 532.888 182.177 530.398 177.503Z" fill="black"/>
<path opacity="0.1" d="M493.153 154.004C492.445 155.034 490.419 160.306 488.728 164.909C487.145 164.322 485.708 160.579 485.708 160.579L494.147 149.139C495.011 150.272 494.444 152.151 493.153 154.004Z" fill="black"/>
<path d="M493.477 153.695C492.769 154.725 490.743 159.997 489.052 164.6C487.469 164.018 486.032 160.27 486.032 160.27L494.471 148.835C495.335 149.963 494.768 151.847 493.477 153.695Z" fill="#DCE7FF"/>
<path d="M444.411 206.293L439.733 192.233C439.677 192.068 439.657 191.895 439.672 191.722C439.687 191.55 439.738 191.382 439.821 191.229C439.904 191.075 440.019 190.939 440.157 190.827C440.296 190.716 440.457 190.632 440.63 190.58C440.978 190.476 441.355 190.508 441.679 190.668C442.002 190.828 442.247 191.104 442.358 191.435L447.037 205.48L446.572 208.42L444.411 206.293Z" fill="#BE8B87"/>
<path opacity="0.1" d="M440.176 190.997C440.525 190.892 440.903 190.923 441.228 191.083C441.553 191.243 441.799 191.519 441.91 191.852L446.589 205.897L446.238 208.1L446.578 208.44L447.043 205.5L442.337 191.455C442.225 191.124 441.981 190.849 441.657 190.689C441.333 190.529 440.956 190.497 440.608 190.6C440.315 190.691 440.062 190.872 439.89 191.115C439.981 191.068 440.077 191.029 440.176 190.997Z" fill="white"/>
<path d="M444.411 206.293L447.037 205.5L446.653 207.91L446.572 208.44L445.805 207.678L444.411 206.293Z" fill="#EFC8C4"/>
<path d="M445.805 207.678C445.85 207.623 445.907 207.578 445.972 207.544C446.01 207.521 446.054 207.509 446.099 207.509C446.144 207.509 446.188 207.521 446.226 207.544C446.263 207.587 446.294 207.633 446.318 207.683C446.354 207.74 446.402 207.789 446.46 207.825C446.518 207.862 446.584 207.885 446.653 207.894L446.572 208.409L445.805 207.678Z" fill="#727A9C"/>
<path d="M439.706 197.227C439.706 197.227 449.09 197.175 446.881 200.98C444.671 204.785 441.219 205.243 441.219 205.243L439.706 197.227Z" fill="#FFB0B1"/>
<path d="M381.343 26.474H380.937C364.816 26.474 350.559 34.6036 342.358 46.5998C334.157 34.6036 319.9 26.474 303.779 26.474H303.373C291.275 26.5839 279.711 31.2395 271.194 39.4292C262.677 47.6189 257.896 58.6809 257.89 70.2112C257.89 84.5294 264.47 104.846 277.301 121.563C301.747 153.417 342.358 181.287 342.358 181.287C342.358 181.287 382.969 153.423 407.41 121.563C420.246 104.846 426.821 84.5294 426.821 70.2112C426.814 58.6818 422.034 47.6206 413.518 39.431C405.003 31.2415 393.44 26.5852 381.343 26.474ZM375.546 124.014C373.71 124.007 371.919 123.472 370.408 122.477C368.897 121.483 367.737 120.077 367.08 118.443H357.442C356.807 118.439 356.19 118.247 355.675 117.892C355.161 117.538 354.776 117.039 354.573 116.466L351.613 107.966L342.245 139.161C342.062 139.762 341.68 140.289 341.156 140.665C340.632 141.041 339.994 141.245 339.338 141.246H339.149C338.464 141.215 337.812 140.96 337.301 140.525C336.789 140.091 336.45 139.502 336.34 138.857L326.685 83.5203L319.63 116.265C319.468 116.887 319.092 117.44 318.562 117.835C318.033 118.229 317.379 118.444 316.707 118.443H303.13C302.723 118.46 302.317 118.397 301.936 118.26C301.555 118.123 301.207 117.914 300.913 117.645C300.619 117.377 300.385 117.054 300.225 116.697C300.065 116.34 299.983 115.956 299.983 115.568C299.983 115.179 300.065 114.795 300.225 114.438C300.385 114.081 300.619 113.759 300.913 113.49C301.207 113.221 301.555 113.012 301.936 112.875C302.317 112.738 302.723 112.676 303.13 112.692H314.33L324.324 68.6666C324.488 68.0157 324.885 67.4393 325.445 67.036C326.006 66.6327 326.696 66.4275 327.398 66.4554C328.1 66.4834 328.77 66.7428 329.293 67.1893C329.816 67.6359 330.161 68.2418 330.267 68.9035L340.127 125.352L348.522 97.442C348.697 96.8542 349.067 96.336 349.576 95.9649C350.085 95.5937 350.707 95.3894 351.348 95.3826H351.407C352.042 95.3828 352.661 95.574 353.175 95.929C353.689 96.2841 354.073 96.7847 354.271 97.3597L359.624 112.708H366.961C367.483 111.197 368.432 109.854 369.704 108.825C370.977 107.797 372.522 107.123 374.171 106.879C375.82 106.635 377.507 106.829 379.047 107.441C380.587 108.053 381.919 109.059 382.897 110.347C383.875 111.635 384.461 113.155 384.59 114.741C384.718 116.326 384.384 117.914 383.626 119.33C382.867 120.746 381.712 121.935 380.289 122.765C378.866 123.595 377.23 124.034 375.562 124.034L375.546 124.014Z" fill="#921F1F"/>
</g>
<defs>
<linearGradient id="paint0_linear_2232_7312" x1="192.508" y1="398.948" x2="192.508" y2="82.1353" gradientUnits="userSpaceOnUse">
<stop stop-color="#808080" stop-opacity="0.25"/>
<stop offset="0.54" stop-color="#808080" stop-opacity="0.12"/>
<stop offset="1" stop-color="#808080" stop-opacity="0.1"/>
</linearGradient>
<linearGradient id="paint1_linear_2232_7312" x1="482.677" y1="394.942" x2="482.677" y2="105.592" gradientUnits="userSpaceOnUse">
<stop stop-color="#808080" stop-opacity="0.25"/>
<stop offset="0.54" stop-color="#808080" stop-opacity="0.12"/>
<stop offset="1" stop-color="#808080" stop-opacity="0.1"/>
</linearGradient>
<clipPath id="clip0_2232_7312">
<rect width="597" height="403" fill="white"/>
</clipPath>
</defs>
</svg>
