<svg width="22" height="26" viewBox="0 0 22 26" fill="none" xmlns="http://www.w3.org/2000/svg">
<path d="M21.402 9.65347C21.402 7.74419 20.7843 5.87779 19.6271 4.29029C18.47 2.70278 16.8253 1.46547 14.901 0.734826C12.9767 0.00417834 10.8592 -0.186992 8.81639 0.185489C6.77357 0.55797 4.89711 1.47737 3.42432 2.82743C1.95152 4.1775 0.948538 5.89758 0.542195 7.77017C0.135852 9.64276 0.344402 11.5837 1.14147 13.3477C1.93854 15.1116 3.28833 16.6193 5.02016 17.68C6.75198 18.7408 8.78805 19.3069 10.8709 19.3069V9.65347H21.402Z" fill="white"/>
<path d="M0.432428 16.1657C0.414274 18.0771 1.00825 19.9506 2.13925 21.5492C3.27025 23.1478 4.88747 24.3998 6.7864 25.1468C8.68534 25.8938 10.7807 26.1022 12.8075 25.7459C14.8343 25.3895 16.7016 24.4842 18.1731 23.1445C19.6446 21.8049 20.6544 20.091 21.0746 18.2196C21.4949 16.3482 21.3068 14.4034 20.5341 12.6311C19.7615 10.8587 18.4389 9.33848 16.7338 8.26259C15.0286 7.18669 13.0174 6.60345 10.9545 6.58663L10.8627 16.2508L0.432428 16.1657Z" fill="#09999B"/>
</svg>
