<svg width="42" height="40" viewBox="0 0 42 40" fill="none" xmlns="http://www.w3.org/2000/svg">
<path d="M18.7988 2V5.78949" stroke="black" stroke-width="3" stroke-linecap="round" stroke-linejoin="round"/>
<path d="M7.42969 2V5.78949" stroke="black" stroke-width="3" stroke-linecap="round" stroke-linejoin="round"/>
<path d="M7.43032 3.89453H5.53558C4.53055 3.89453 3.56668 4.29378 2.85601 5.00445C2.14534 5.71511 1.74609 6.67898 1.74609 7.68402V15.263C1.74609 18.2781 2.94384 21.1697 5.07584 23.3017C7.20784 25.4337 10.0995 26.6315 13.1146 26.6315C16.1297 26.6315 19.0213 25.4337 21.1533 23.3017C23.2853 21.1697 24.483 18.2781 24.483 15.263V7.68402C24.483 6.67898 24.0838 5.71511 23.3731 5.00445C22.6624 4.29378 21.6986 3.89453 20.6935 3.89453H18.7988" stroke="black" stroke-width="3" stroke-linecap="round" stroke-linejoin="round"/>
<path d="M13.1143 26.6315C13.1143 29.6466 14.312 32.5382 16.444 34.6702C18.576 36.8022 21.4676 38 24.4827 38C27.4978 38 30.3894 36.8022 32.5214 34.6702C34.6534 32.5382 35.8512 29.6466 35.8512 26.6315V20.9473" stroke="black" stroke-width="3" stroke-linecap="round" stroke-linejoin="round"/>
<path d="M35.851 20.9471C37.9439 20.9471 39.6405 19.2505 39.6405 17.1577C39.6405 15.0648 37.9439 13.3682 35.851 13.3682C33.7581 13.3682 32.0615 15.0648 32.0615 17.1577C32.0615 19.2505 33.7581 20.9471 35.851 20.9471Z" stroke="black" stroke-width="3" stroke-linecap="round" stroke-linejoin="round"/>
</svg>
