<svg width="57" height="51" viewBox="0 0 57 51" fill="none" xmlns="http://www.w3.org/2000/svg">
<g clip-path="url(#clip0_2257_7620)">
<circle cx="29.1224" cy="26.8861" r="24" transform="rotate(-17.1193 29.1224 26.8861)" fill="#00A251"/>
<path d="M41.4755 20.3414C41.1563 19.9808 40.7692 19.6866 40.3363 19.4756C39.9034 19.2647 39.4331 19.141 38.9524 19.1118C38.4717 19.0826 37.9899 19.1484 37.5347 19.3054C37.0794 19.4624 36.6595 19.7075 36.2989 20.0268L25.8058 29.3167L23.427 24.3472C23.2245 23.9045 22.9358 23.5065 22.5778 23.1765C22.2198 22.8465 21.7996 22.5912 21.3419 22.4253C20.8841 22.2594 20.3979 22.1864 19.9117 22.2104C19.4254 22.2345 18.9488 22.3551 18.5096 22.5653C18.0704 22.7755 17.6776 23.0711 17.3538 23.4348C17.0301 23.7985 16.7821 24.223 16.6242 24.6835C16.4663 25.1441 16.4017 25.6315 16.4342 26.1173C16.4667 26.6031 16.5956 27.0775 16.8134 27.513L21.2912 36.8674C21.7137 37.7531 22.4687 38.4236 23.3782 38.7443L23.8693 38.8786C24.4255 38.9913 25.0002 38.9734 25.5483 38.8262C26.0964 38.6791 26.6028 38.4068 27.0278 38.0307L41.1592 25.5174C41.5198 25.1983 41.8141 24.8113 42.0252 24.3785C42.2362 23.9457 42.36 23.4756 42.3894 22.995C42.4188 22.5143 42.3532 22.0326 42.1964 21.5773C42.0396 21.122 41.7946 20.7021 41.4755 20.3414Z" fill="#F5F5F5"/>
</g>
<defs>
<clipPath id="clip0_2257_7620">
<rect width="56.4056" height="50.64" fill="white" transform="translate(0 0.279785)"/>
</clipPath>
</defs>
</svg>
